<svg xmlns="http://www.w3.org/2000/svg" xmlns:xlink="http://www.w3.org/1999/xlink" width="70" zoomAndPan="magnify" viewBox="0 0 52.5 52.499999" height="70" preserveAspectRatio="xMidYMid meet" version="1.2"><defs><clipPath id="d426f0efec"><path d="M 0.703125 0.703125 L 51.222656 0.703125 L 51.222656 51.222656 L 0.703125 51.222656 Z M 0.703125 0.703125 "/></clipPath></defs><g id="20ffa30c74"><g clip-rule="nonzero" clip-path="url(#d426f0efec)"><path style=" stroke:none;fill-rule:nonzero;fill:#796fa0;fill-opacity:1;" d="M 51.222656 25.960938 C 51.222656 26.789062 51.179688 27.613281 51.101562 28.4375 C 51.019531 29.261719 50.898438 30.078125 50.734375 30.890625 C 50.574219 31.703125 50.375 32.503906 50.132812 33.292969 C 49.894531 34.085938 49.617188 34.863281 49.296875 35.628906 C 48.980469 36.394531 48.628906 37.140625 48.238281 37.871094 C 47.847656 38.597656 47.425781 39.308594 46.964844 39.996094 C 46.503906 40.683594 46.011719 41.347656 45.488281 41.988281 C 44.964844 42.625 44.40625 43.238281 43.824219 43.824219 C 43.238281 44.40625 42.625 44.964844 41.988281 45.488281 C 41.347656 46.011719 40.683594 46.503906 39.996094 46.964844 C 39.308594 47.425781 38.597656 47.847656 37.871094 48.238281 C 37.140625 48.628906 36.394531 48.980469 35.628906 49.296875 C 34.863281 49.617188 34.085938 49.894531 33.292969 50.132812 C 32.503906 50.375 31.703125 50.574219 30.890625 50.734375 C 30.078125 50.898438 29.261719 51.019531 28.4375 51.101562 C 27.613281 51.179688 26.789062 51.222656 25.960938 51.222656 C 25.136719 51.222656 24.308594 51.179688 23.484375 51.101562 C 22.664062 51.019531 21.84375 50.898438 21.035156 50.734375 C 20.222656 50.574219 19.421875 50.375 18.628906 50.132812 C 17.839844 49.894531 17.058594 49.617188 16.296875 49.296875 C 15.53125 48.980469 14.785156 48.628906 14.054688 48.238281 C 13.324219 47.847656 12.617188 47.425781 11.929688 46.964844 C 11.242188 46.503906 10.578125 46.011719 9.9375 45.488281 C 9.296875 44.964844 8.6875 44.40625 8.101562 43.824219 C 7.515625 43.238281 6.960938 42.625 6.4375 41.988281 C 5.910156 41.347656 5.417969 40.683594 4.960938 39.996094 C 4.5 39.308594 4.074219 38.597656 3.683594 37.871094 C 3.296875 37.140625 2.941406 36.394531 2.625 35.628906 C 2.308594 34.863281 2.03125 34.085938 1.789062 33.292969 C 1.550781 32.503906 1.347656 31.703125 1.1875 30.890625 C 1.027344 30.078125 0.90625 29.261719 0.824219 28.4375 C 0.742188 27.613281 0.703125 26.789062 0.703125 25.960938 C 0.703125 25.136719 0.742188 24.308594 0.824219 23.484375 C 0.90625 22.664062 1.027344 21.84375 1.1875 21.035156 C 1.347656 20.222656 1.550781 19.421875 1.789062 18.628906 C 2.03125 17.839844 2.308594 17.058594 2.625 16.296875 C 2.941406 15.53125 3.296875 14.785156 3.683594 14.054688 C 4.074219 13.324219 4.5 12.617188 4.960938 11.929688 C 5.417969 11.242188 5.910156 10.578125 6.4375 9.9375 C 6.960938 9.296875 7.515625 8.6875 8.101562 8.101562 C 8.6875 7.515625 9.296875 6.960938 9.9375 6.4375 C 10.578125 5.910156 11.242188 5.417969 11.929688 4.960938 C 12.617188 4.5 13.324219 4.074219 14.054688 3.683594 C 14.785156 3.296875 15.53125 2.941406 16.296875 2.625 C 17.058594 2.308594 17.839844 2.03125 18.628906 1.789062 C 19.421875 1.550781 20.222656 1.347656 21.035156 1.1875 C 21.84375 1.027344 22.664062 0.90625 23.484375 0.824219 C 24.308594 0.742188 25.136719 0.703125 25.960938 0.703125 C 26.789062 0.703125 27.613281 0.742188 28.4375 0.824219 C 29.261719 0.90625 30.078125 1.027344 30.890625 1.1875 C 31.703125 1.347656 32.503906 1.550781 33.292969 1.789062 C 34.085938 2.03125 34.863281 2.308594 35.628906 2.625 C 36.394531 2.941406 37.140625 3.296875 37.871094 3.683594 C 38.597656 4.074219 39.308594 4.5 39.996094 4.960938 C 40.683594 5.417969 41.347656 5.910156 41.988281 6.4375 C 42.625 6.960938 43.238281 7.515625 43.824219 8.101562 C 44.40625 8.6875 44.964844 9.296875 45.488281 9.9375 C 46.011719 10.578125 46.503906 11.242188 46.964844 11.929688 C 47.425781 12.617188 47.847656 13.324219 48.238281 14.054688 C 48.628906 14.785156 48.980469 15.53125 49.296875 16.296875 C 49.617188 17.058594 49.894531 17.839844 50.132812 18.628906 C 50.375 19.421875 50.574219 20.222656 50.734375 21.035156 C 50.898438 21.84375 51.019531 22.664062 51.101562 23.484375 C 51.179688 24.308594 51.222656 25.136719 51.222656 25.960938 Z M 51.222656 25.960938 "/></g><path style=" stroke:none;fill-rule:nonzero;fill:#ffffff;fill-opacity:1;" d="M 43.78125 13.480469 C 42.472656 12.171875 40.335938 12.171875 39.027344 13.480469 L 21.175781 31.332031 L 12.898438 23.054688 C 11.585938 21.746094 9.453125 21.746094 8.144531 23.054688 C 6.832031 24.367188 6.832031 26.5 8.144531 27.8125 L 18.675781 38.34375 C 18.707031 38.386719 18.753906 38.421875 18.796875 38.464844 C 19.457031 39.125 20.316406 39.457031 21.175781 39.445312 C 22.03125 39.445312 22.902344 39.113281 23.550781 38.464844 C 23.597656 38.421875 23.628906 38.386719 23.671875 38.34375 L 43.78125 18.234375 C 45.089844 16.925781 45.089844 14.789062 43.78125 13.480469 Z M 43.78125 13.480469 "/></g></svg>