<svg xmlns="http://www.w3.org/2000/svg" xmlns:xlink="http://www.w3.org/1999/xlink" width="170" zoomAndPan="magnify" viewBox="0 0 127.5 37.5" height="50" preserveAspectRatio="xMidYMid meet" version="1.2"><defs><clipPath id="de67a29801"><path d="M 12 1.746094 L 33.898438 1.746094 L 33.898438 24 L 12 24 Z M 12 1.746094 "/></clipPath><clipPath id="2d49f6de4c"><path d="M 0.59375 13 L 23 13 L 23 35 L 0.59375 35 Z M 0.59375 13 "/></clipPath></defs><g id="a5e6a76a58"><g clip-rule="nonzero" clip-path="url(#de67a29801)"><path style=" stroke:none;fill-rule:nonzero;fill:#525252;fill-opacity:1;" d="M 33.890625 18.375 C 33.890625 21.132812 31.660156 23.367188 28.898438 23.367188 L 18.675781 23.367188 C 15.140625 23.367188 12.269531 20.496094 12.269531 16.960938 L 12.269531 6.738281 C 12.269531 3.980469 14.503906 1.746094 17.261719 1.746094 C 20.023438 1.746094 22.253906 3.980469 22.253906 6.738281 L 22.253906 13.382812 L 28.898438 13.382812 C 31.660156 13.382812 33.890625 15.625 33.890625 18.375 Z M 33.890625 18.375 "/></g><g clip-rule="nonzero" clip-path="url(#2d49f6de4c)"><path style=" stroke:none;fill-rule:nonzero;fill:#b4857b;fill-opacity:1;" d="M 0.597656 18.308594 C 0.597656 15.550781 2.832031 13.316406 5.589844 13.316406 L 15.816406 13.316406 C 19.347656 13.316406 22.21875 16.1875 22.21875 19.722656 L 22.21875 29.945312 C 22.21875 32.703125 19.984375 34.9375 17.226562 34.9375 C 14.46875 34.9375 12.234375 32.703125 12.234375 29.945312 L 12.234375 23.300781 L 5.589844 23.300781 C 2.832031 23.300781 0.597656 21.066406 0.597656 18.308594 Z M 0.597656 18.308594 "/></g><path style=" stroke:none;fill-rule:nonzero;fill:#966c41;fill-opacity:1;" d="M 22.21875 19.722656 L 22.21875 23.367188 L 18.675781 23.367188 C 15.140625 23.367188 12.269531 20.496094 12.269531 16.960938 L 12.269531 13.316406 L 15.816406 13.316406 C 19.347656 13.316406 22.21875 16.1875 22.21875 19.722656 Z M 22.21875 19.722656 "/><g style="fill:#525252;fill-opacity:1;"><g transform="translate(36.879339, 20.502273)"><path style="stroke:none" d="M 3.75 0 L 0.921875 0 L 0.921875 -12.796875 L 3.75 -12.796875 L 3.75 -8.484375 C 4.070312 -8.972656 4.429688 -9.300781 4.828125 -9.46875 C 5.222656 -9.632812 5.671875 -9.71875 6.171875 -9.71875 C 6.796875 -9.71875 7.3125 -9.640625 7.71875 -9.484375 C 8.132812 -9.335938 8.460938 -9.140625 8.703125 -8.890625 C 8.941406 -8.640625 9.125 -8.367188 9.25 -8.078125 C 9.4375 -7.660156 9.539062 -7.242188 9.5625 -6.828125 C 9.59375 -6.410156 9.609375 -5.90625 9.609375 -5.3125 L 9.609375 0 L 6.796875 0 L 6.796875 -5.359375 C 6.796875 -5.828125 6.765625 -6.195312 6.703125 -6.46875 C 6.640625 -6.738281 6.535156 -6.945312 6.390625 -7.09375 C 6.171875 -7.332031 5.828125 -7.453125 5.359375 -7.453125 C 5.066406 -7.453125 4.8125 -7.414062 4.59375 -7.34375 C 4.382812 -7.269531 4.21875 -7.144531 4.09375 -6.96875 C 3.976562 -6.8125 3.890625 -6.601562 3.828125 -6.34375 C 3.773438 -6.09375 3.75 -5.765625 3.75 -5.359375 Z M 3.75 0 "/></g></g><g style="fill:#525252;fill-opacity:1;"><g transform="translate(46.935355, 20.502273)"><path style="stroke:none" d="M 5.5 0.203125 C 4.5 0.203125 3.625 -0.0078125 2.875 -0.4375 C 2.132812 -0.863281 1.554688 -1.441406 1.140625 -2.171875 C 0.734375 -2.898438 0.53125 -3.738281 0.53125 -4.6875 C 0.53125 -5.289062 0.625 -5.882812 0.8125 -6.46875 C 1 -7.0625 1.289062 -7.601562 1.6875 -8.09375 C 2.082031 -8.59375 2.585938 -8.988281 3.203125 -9.28125 C 3.816406 -9.570312 4.554688 -9.71875 5.421875 -9.71875 C 6.046875 -9.71875 6.648438 -9.625 7.234375 -9.4375 C 7.828125 -9.25 8.351562 -8.953125 8.8125 -8.546875 C 9.28125 -8.148438 9.648438 -7.628906 9.921875 -6.984375 C 10.203125 -6.347656 10.34375 -5.566406 10.34375 -4.640625 L 10.34375 -4.15625 L 3.484375 -4.15625 C 3.566406 -3.644531 3.734375 -3.238281 3.984375 -2.9375 C 4.179688 -2.6875 4.421875 -2.503906 4.703125 -2.390625 C 4.992188 -2.273438 5.3125 -2.21875 5.65625 -2.21875 C 6.082031 -2.21875 6.441406 -2.320312 6.734375 -2.53125 C 7.035156 -2.75 7.238281 -3.003906 7.34375 -3.296875 L 10.1875 -3.296875 C 10.007812 -2.660156 9.722656 -2.078125 9.328125 -1.546875 C 8.941406 -1.015625 8.429688 -0.585938 7.796875 -0.265625 C 7.160156 0.046875 6.394531 0.203125 5.5 0.203125 Z M 3.578125 -6.15625 L 7.484375 -6.15625 C 7.460938 -6.269531 7.421875 -6.40625 7.359375 -6.5625 C 7.296875 -6.71875 7.1875 -6.867188 7.03125 -7.015625 C 6.832031 -7.210938 6.601562 -7.351562 6.34375 -7.4375 C 6.082031 -7.519531 5.804688 -7.5625 5.515625 -7.5625 C 5.234375 -7.5625 4.960938 -7.519531 4.703125 -7.4375 C 4.441406 -7.351562 4.210938 -7.210938 4.015625 -7.015625 C 3.859375 -6.859375 3.75 -6.703125 3.6875 -6.546875 C 3.632812 -6.398438 3.597656 -6.269531 3.578125 -6.15625 Z M 3.578125 -6.15625 "/></g></g><g style="fill:#525252;fill-opacity:1;"><g transform="translate(57.394281, 20.502273)"><path style="stroke:none" d="M 3.671875 0.203125 C 3.097656 0.203125 2.578125 0.0976562 2.109375 -0.109375 C 1.640625 -0.328125 1.257812 -0.648438 0.96875 -1.078125 C 0.6875 -1.503906 0.546875 -2.035156 0.546875 -2.671875 C 0.546875 -3.242188 0.65625 -3.710938 0.875 -4.078125 C 1.101562 -4.441406 1.394531 -4.738281 1.75 -4.96875 C 2.082031 -5.1875 2.445312 -5.347656 2.84375 -5.453125 C 3.25 -5.566406 3.632812 -5.65625 4 -5.71875 L 6.453125 -6.15625 C 6.421875 -6.632812 6.296875 -7.003906 6.078125 -7.265625 C 5.859375 -7.492188 5.539062 -7.609375 5.125 -7.609375 C 4.789062 -7.609375 4.488281 -7.5 4.21875 -7.28125 C 3.945312 -7.0625 3.773438 -6.75 3.703125 -6.34375 L 0.90625 -6.34375 C 1.03125 -7.132812 1.300781 -7.78125 1.71875 -8.28125 C 2.144531 -8.78125 2.660156 -9.144531 3.265625 -9.375 C 3.867188 -9.601562 4.492188 -9.71875 5.140625 -9.71875 C 5.691406 -9.71875 6.222656 -9.640625 6.734375 -9.484375 C 7.253906 -9.335938 7.707031 -9.101562 8.09375 -8.78125 C 8.476562 -8.4375 8.75 -8.046875 8.90625 -7.609375 C 9.070312 -7.179688 9.171875 -6.707031 9.203125 -6.1875 C 9.242188 -5.664062 9.265625 -5.109375 9.265625 -4.515625 L 9.265625 0 L 6.4375 0 L 6.4375 -1.15625 C 6.28125 -0.789062 6.054688 -0.503906 5.765625 -0.296875 C 5.492188 -0.109375 5.175781 0.0195312 4.8125 0.09375 C 4.445312 0.164062 4.066406 0.203125 3.671875 0.203125 Z M 4.5 -1.9375 C 4.832031 -1.9375 5.171875 -2.015625 5.515625 -2.171875 C 5.910156 -2.347656 6.171875 -2.59375 6.296875 -2.90625 C 6.429688 -3.226562 6.503906 -3.644531 6.515625 -4.15625 L 4.78125 -3.828125 C 4.46875 -3.773438 4.226562 -3.710938 4.0625 -3.640625 C 3.894531 -3.578125 3.75 -3.488281 3.625 -3.375 C 3.539062 -3.289062 3.476562 -3.203125 3.4375 -3.109375 C 3.394531 -3.015625 3.375 -2.898438 3.375 -2.765625 C 3.375 -2.460938 3.484375 -2.25 3.703125 -2.125 C 3.929688 -2 4.195312 -1.9375 4.5 -1.9375 Z M 4.5 -1.9375 "/></g></g><g style="fill:#525252;fill-opacity:1;"><g transform="translate(67.064172, 20.502273)"><path style="stroke:none" d="M 4.953125 0 L 3.046875 0 C 2.359375 0 1.820312 -0.160156 1.4375 -0.484375 C 1.0625 -0.816406 0.875 -1.285156 0.875 -1.890625 L 0.875 -12.796875 L 3.6875 -12.796875 L 3.6875 -2.875 C 3.6875 -2.613281 3.75 -2.445312 3.875 -2.375 C 4.007812 -2.3125 4.132812 -2.28125 4.25 -2.28125 L 4.953125 -2.28125 Z M 4.953125 0 "/></g></g><g style="fill:#525252;fill-opacity:1;"><g transform="translate(71.983059, 20.502273)"><path style="stroke:none" d="M 6.109375 0 L 3.859375 0 C 3.160156 0 2.617188 -0.160156 2.234375 -0.484375 C 1.847656 -0.816406 1.65625 -1.285156 1.65625 -1.890625 L 1.65625 -7.3125 L 0.359375 -7.3125 L 0.359375 -9.515625 L 1.65625 -9.515625 L 1.65625 -12.796875 L 4.484375 -12.796875 L 4.484375 -9.515625 L 6.125 -9.515625 L 6.125 -7.3125 L 4.484375 -7.3125 L 4.484375 -2.859375 C 4.484375 -2.722656 4.515625 -2.59375 4.578125 -2.46875 C 4.648438 -2.34375 4.804688 -2.28125 5.046875 -2.28125 L 6.109375 -2.28125 Z M 6.109375 0 "/></g></g><g style="fill:#525252;fill-opacity:1;"><g transform="translate(78.244983, 20.502273)"><path style="stroke:none" d="M 3.75 0 L 0.921875 0 L 0.921875 -12.796875 L 3.75 -12.796875 L 3.75 -8.484375 C 4.070312 -8.972656 4.429688 -9.300781 4.828125 -9.46875 C 5.222656 -9.632812 5.671875 -9.71875 6.171875 -9.71875 C 6.796875 -9.71875 7.3125 -9.640625 7.71875 -9.484375 C 8.132812 -9.335938 8.460938 -9.140625 8.703125 -8.890625 C 8.941406 -8.640625 9.125 -8.367188 9.25 -8.078125 C 9.4375 -7.660156 9.539062 -7.242188 9.5625 -6.828125 C 9.59375 -6.410156 9.609375 -5.90625 9.609375 -5.3125 L 9.609375 0 L 6.796875 0 L 6.796875 -5.359375 C 6.796875 -5.828125 6.765625 -6.195312 6.703125 -6.46875 C 6.640625 -6.738281 6.535156 -6.945312 6.390625 -7.09375 C 6.171875 -7.332031 5.828125 -7.453125 5.359375 -7.453125 C 5.066406 -7.453125 4.8125 -7.414062 4.59375 -7.34375 C 4.382812 -7.269531 4.21875 -7.144531 4.09375 -6.96875 C 3.976562 -6.8125 3.890625 -6.601562 3.828125 -6.34375 C 3.773438 -6.09375 3.75 -5.765625 3.75 -5.359375 Z M 3.75 0 "/></g></g><g style="fill:#525252;fill-opacity:1;"><g transform="translate(88.301, 20.502273)"><path style="stroke:none" d="M 5.484375 0.203125 C 4.503906 0.203125 3.640625 -0.00390625 2.890625 -0.421875 C 2.148438 -0.835938 1.570312 -1.421875 1.15625 -2.171875 C 0.738281 -2.929688 0.53125 -3.8125 0.53125 -4.8125 C 0.53125 -5.789062 0.734375 -6.644531 1.140625 -7.375 C 1.554688 -8.101562 2.132812 -8.675781 2.875 -9.09375 C 3.625 -9.507812 4.492188 -9.71875 5.484375 -9.71875 C 6.679688 -9.71875 7.695312 -9.410156 8.53125 -8.796875 C 9.363281 -8.191406 9.90625 -7.375 10.15625 -6.34375 L 7.0625 -6.34375 C 6.820312 -7.101562 6.296875 -7.484375 5.484375 -7.484375 C 4.859375 -7.484375 4.359375 -7.242188 3.984375 -6.765625 C 3.617188 -6.296875 3.4375 -5.644531 3.4375 -4.8125 C 3.4375 -3.957031 3.617188 -3.28125 3.984375 -2.78125 C 4.359375 -2.289062 4.859375 -2.046875 5.484375 -2.046875 C 5.960938 -2.046875 6.328125 -2.15625 6.578125 -2.375 C 6.835938 -2.59375 7.007812 -2.898438 7.09375 -3.296875 L 10.171875 -3.296875 C 9.929688 -2.191406 9.390625 -1.332031 8.546875 -0.71875 C 7.703125 -0.101562 6.679688 0.203125 5.484375 0.203125 Z M 5.484375 0.203125 "/></g></g><g style="fill:#525252;fill-opacity:1;"><g transform="translate(98.508107, 20.502273)"><path style="stroke:none" d="M 3.671875 0.203125 C 3.097656 0.203125 2.578125 0.0976562 2.109375 -0.109375 C 1.640625 -0.328125 1.257812 -0.648438 0.96875 -1.078125 C 0.6875 -1.503906 0.546875 -2.035156 0.546875 -2.671875 C 0.546875 -3.242188 0.65625 -3.710938 0.875 -4.078125 C 1.101562 -4.441406 1.394531 -4.738281 1.75 -4.96875 C 2.082031 -5.1875 2.445312 -5.347656 2.84375 -5.453125 C 3.25 -5.566406 3.632812 -5.65625 4 -5.71875 L 6.453125 -6.15625 C 6.421875 -6.632812 6.296875 -7.003906 6.078125 -7.265625 C 5.859375 -7.492188 5.539062 -7.609375 5.125 -7.609375 C 4.789062 -7.609375 4.488281 -7.5 4.21875 -7.28125 C 3.945312 -7.0625 3.773438 -6.75 3.703125 -6.34375 L 0.90625 -6.34375 C 1.03125 -7.132812 1.300781 -7.78125 1.71875 -8.28125 C 2.144531 -8.78125 2.660156 -9.144531 3.265625 -9.375 C 3.867188 -9.601562 4.492188 -9.71875 5.140625 -9.71875 C 5.691406 -9.71875 6.222656 -9.640625 6.734375 -9.484375 C 7.253906 -9.335938 7.707031 -9.101562 8.09375 -8.78125 C 8.476562 -8.4375 8.75 -8.046875 8.90625 -7.609375 C 9.070312 -7.179688 9.171875 -6.707031 9.203125 -6.1875 C 9.242188 -5.664062 9.265625 -5.109375 9.265625 -4.515625 L 9.265625 0 L 6.4375 0 L 6.4375 -1.15625 C 6.28125 -0.789062 6.054688 -0.503906 5.765625 -0.296875 C 5.492188 -0.109375 5.175781 0.0195312 4.8125 0.09375 C 4.445312 0.164062 4.066406 0.203125 3.671875 0.203125 Z M 4.5 -1.9375 C 4.832031 -1.9375 5.171875 -2.015625 5.515625 -2.171875 C 5.910156 -2.347656 6.171875 -2.59375 6.296875 -2.90625 C 6.429688 -3.226562 6.503906 -3.644531 6.515625 -4.15625 L 4.78125 -3.828125 C 4.46875 -3.773438 4.226562 -3.710938 4.0625 -3.640625 C 3.894531 -3.578125 3.75 -3.488281 3.625 -3.375 C 3.539062 -3.289062 3.476562 -3.203125 3.4375 -3.109375 C 3.394531 -3.015625 3.375 -2.898438 3.375 -2.765625 C 3.375 -2.460938 3.484375 -2.25 3.703125 -2.125 C 3.929688 -2 4.195312 -1.9375 4.5 -1.9375 Z M 4.5 -1.9375 "/></g></g><g style="fill:#525252;fill-opacity:1;"><g transform="translate(108.177998, 20.502273)"><path style="stroke:none" d="M 3.75 0 L 0.921875 0 L 0.921875 -9.515625 L 3.75 -9.515625 L 3.75 -8.484375 C 4.070312 -8.972656 4.429688 -9.300781 4.828125 -9.46875 C 5.222656 -9.632812 5.671875 -9.71875 6.171875 -9.71875 L 6.59375 -9.71875 L 6.59375 -7.03125 L 6.0625 -7.03125 C 5.664062 -7.03125 5.335938 -6.984375 5.078125 -6.890625 C 4.828125 -6.804688 4.617188 -6.6875 4.453125 -6.53125 C 4.203125 -6.289062 4.019531 -5.972656 3.90625 -5.578125 C 3.800781 -5.179688 3.75 -4.660156 3.75 -4.015625 Z M 3.75 0 "/></g></g><g style="fill:#525252;fill-opacity:1;"><g transform="translate(114.64138, 20.502273)"><path style="stroke:none" d="M 5.5 0.203125 C 4.5 0.203125 3.625 -0.0078125 2.875 -0.4375 C 2.132812 -0.863281 1.554688 -1.441406 1.140625 -2.171875 C 0.734375 -2.898438 0.53125 -3.738281 0.53125 -4.6875 C 0.53125 -5.289062 0.625 -5.882812 0.8125 -6.46875 C 1 -7.0625 1.289062 -7.601562 1.6875 -8.09375 C 2.082031 -8.59375 2.585938 -8.988281 3.203125 -9.28125 C 3.816406 -9.570312 4.554688 -9.71875 5.421875 -9.71875 C 6.046875 -9.71875 6.648438 -9.625 7.234375 -9.4375 C 7.828125 -9.25 8.351562 -8.953125 8.8125 -8.546875 C 9.28125 -8.148438 9.648438 -7.628906 9.921875 -6.984375 C 10.203125 -6.347656 10.34375 -5.566406 10.34375 -4.640625 L 10.34375 -4.15625 L 3.484375 -4.15625 C 3.566406 -3.644531 3.734375 -3.238281 3.984375 -2.9375 C 4.179688 -2.6875 4.421875 -2.503906 4.703125 -2.390625 C 4.992188 -2.273438 5.3125 -2.21875 5.65625 -2.21875 C 6.082031 -2.21875 6.441406 -2.320312 6.734375 -2.53125 C 7.035156 -2.75 7.238281 -3.003906 7.34375 -3.296875 L 10.1875 -3.296875 C 10.007812 -2.660156 9.722656 -2.078125 9.328125 -1.546875 C 8.941406 -1.015625 8.429688 -0.585938 7.796875 -0.265625 C 7.160156 0.046875 6.394531 0.203125 5.5 0.203125 Z M 3.578125 -6.15625 L 7.484375 -6.15625 C 7.460938 -6.269531 7.421875 -6.40625 7.359375 -6.5625 C 7.296875 -6.71875 7.1875 -6.867188 7.03125 -7.015625 C 6.832031 -7.210938 6.601562 -7.351562 6.34375 -7.4375 C 6.082031 -7.519531 5.804688 -7.5625 5.515625 -7.5625 C 5.234375 -7.5625 4.960938 -7.519531 4.703125 -7.4375 C 4.441406 -7.351562 4.210938 -7.210938 4.015625 -7.015625 C 3.859375 -6.859375 3.75 -6.703125 3.6875 -6.546875 C 3.632812 -6.398438 3.597656 -6.269531 3.578125 -6.15625 Z M 3.578125 -6.15625 "/></g></g><g style="fill:#525252;fill-opacity:1;"><g transform="translate(37.368848, 28.081401)"><path style="stroke:none" d="M 1.03125 0 L 0.359375 0 L 0.359375 -3.125 L 1.03125 -3.125 L 1.03125 -2.703125 C 1.15625 -2.878906 1.289062 -3.003906 1.4375 -3.078125 C 1.582031 -3.148438 1.734375 -3.1875 1.890625 -3.1875 C 2.097656 -3.1875 2.273438 -3.140625 2.421875 -3.046875 C 2.578125 -2.960938 2.679688 -2.832031 2.734375 -2.65625 C 2.835938 -2.851562 2.96875 -2.988281 3.125 -3.0625 C 3.289062 -3.144531 3.472656 -3.1875 3.671875 -3.1875 C 4.023438 -3.1875 4.285156 -3.082031 4.453125 -2.875 C 4.617188 -2.675781 4.703125 -2.398438 4.703125 -2.046875 L 4.703125 0 L 4.046875 0 L 4.046875 -1.953125 C 4.046875 -2.179688 4 -2.347656 3.90625 -2.453125 C 3.8125 -2.566406 3.675781 -2.625 3.5 -2.625 C 3.320312 -2.625 3.179688 -2.570312 3.078125 -2.46875 C 2.992188 -2.375 2.9375 -2.253906 2.90625 -2.109375 C 2.875 -1.960938 2.859375 -1.785156 2.859375 -1.578125 L 2.859375 0 L 2.203125 0 L 2.203125 -1.953125 C 2.203125 -2.171875 2.148438 -2.335938 2.046875 -2.453125 C 1.953125 -2.566406 1.820312 -2.625 1.65625 -2.625 C 1.476562 -2.625 1.335938 -2.566406 1.234375 -2.453125 C 1.171875 -2.367188 1.117188 -2.257812 1.078125 -2.125 C 1.046875 -1.988281 1.03125 -1.804688 1.03125 -1.578125 Z M 1.03125 0 "/></g></g><g style="fill:#525252;fill-opacity:1;"><g transform="translate(42.404093, 28.081401)"><path style="stroke:none" d="M 1.796875 0.0625 C 1.484375 0.0625 1.207031 -0.00390625 0.96875 -0.140625 C 0.738281 -0.285156 0.554688 -0.476562 0.421875 -0.71875 C 0.296875 -0.96875 0.234375 -1.242188 0.234375 -1.546875 C 0.234375 -1.753906 0.265625 -1.953125 0.328125 -2.140625 C 0.398438 -2.335938 0.5 -2.515625 0.625 -2.671875 C 0.75 -2.828125 0.90625 -2.953125 1.09375 -3.046875 C 1.289062 -3.140625 1.519531 -3.1875 1.78125 -3.1875 C 2.050781 -3.1875 2.300781 -3.128906 2.53125 -3.015625 C 2.769531 -2.898438 2.960938 -2.722656 3.109375 -2.484375 C 3.253906 -2.253906 3.328125 -1.957031 3.328125 -1.59375 L 3.328125 -1.421875 L 0.90625 -1.421875 C 0.914062 -1.367188 0.925781 -1.3125 0.9375 -1.25 C 0.957031 -1.1875 0.984375 -1.128906 1.015625 -1.078125 C 1.085938 -0.898438 1.191406 -0.757812 1.328125 -0.65625 C 1.472656 -0.5625 1.632812 -0.515625 1.8125 -0.515625 C 2.007812 -0.515625 2.175781 -0.566406 2.3125 -0.671875 C 2.445312 -0.773438 2.539062 -0.894531 2.59375 -1.03125 L 3.28125 -1.03125 C 3.21875 -0.832031 3.117188 -0.648438 2.984375 -0.484375 C 2.859375 -0.316406 2.695312 -0.179688 2.5 -0.078125 C 2.300781 0.015625 2.066406 0.0625 1.796875 0.0625 Z M 0.953125 -1.953125 L 2.640625 -1.953125 C 2.640625 -1.992188 2.628906 -2.039062 2.609375 -2.09375 C 2.597656 -2.144531 2.578125 -2.195312 2.546875 -2.25 C 2.472656 -2.375 2.367188 -2.46875 2.234375 -2.53125 C 2.097656 -2.601562 1.953125 -2.640625 1.796875 -2.640625 C 1.460938 -2.640625 1.21875 -2.507812 1.0625 -2.25 C 1.019531 -2.195312 0.988281 -2.144531 0.96875 -2.09375 C 0.957031 -2.039062 0.953125 -1.992188 0.953125 -1.953125 Z M 0.953125 -1.953125 "/></g></g><g style="fill:#525252;fill-opacity:1;"><g transform="translate(45.963971, 28.081401)"><path style="stroke:none" d="M 1.625 0.0625 C 1.351562 0.0625 1.113281 -0.00390625 0.90625 -0.140625 C 0.695312 -0.285156 0.535156 -0.476562 0.421875 -0.71875 C 0.304688 -0.957031 0.25 -1.238281 0.25 -1.5625 C 0.25 -1.882812 0.304688 -2.164062 0.421875 -2.40625 C 0.535156 -2.644531 0.695312 -2.832031 0.90625 -2.96875 C 1.113281 -3.113281 1.351562 -3.1875 1.625 -3.1875 C 1.8125 -3.1875 1.976562 -3.148438 2.125 -3.078125 C 2.269531 -3.015625 2.414062 -2.890625 2.5625 -2.703125 L 2.5625 -4.265625 L 3.21875 -4.265625 L 3.21875 0 L 2.5625 0 L 2.5625 -0.421875 C 2.414062 -0.242188 2.269531 -0.117188 2.125 -0.046875 C 1.988281 0.0234375 1.820312 0.0625 1.625 0.0625 Z M 1.75 -0.515625 C 1.925781 -0.515625 2.078125 -0.554688 2.203125 -0.640625 C 2.335938 -0.734375 2.441406 -0.859375 2.515625 -1.015625 C 2.585938 -1.171875 2.625 -1.351562 2.625 -1.5625 C 2.625 -1.769531 2.585938 -1.953125 2.515625 -2.109375 C 2.441406 -2.265625 2.335938 -2.382812 2.203125 -2.46875 C 2.078125 -2.5625 1.925781 -2.609375 1.75 -2.609375 C 1.582031 -2.609375 1.4375 -2.5625 1.3125 -2.46875 C 1.1875 -2.382812 1.085938 -2.257812 1.015625 -2.09375 C 0.941406 -1.9375 0.90625 -1.757812 0.90625 -1.5625 C 0.90625 -1.363281 0.941406 -1.179688 1.015625 -1.015625 C 1.085938 -0.859375 1.1875 -0.734375 1.3125 -0.640625 C 1.4375 -0.554688 1.582031 -0.515625 1.75 -0.515625 Z M 1.75 -0.515625 "/></g></g><g style="fill:#525252;fill-opacity:1;"><g transform="translate(49.540614, 28.081401)"><path style="stroke:none" d="M 0.6875 -3.53125 C 0.570312 -3.53125 0.472656 -3.566406 0.390625 -3.640625 C 0.304688 -3.722656 0.265625 -3.820312 0.265625 -3.9375 C 0.265625 -4.050781 0.304688 -4.144531 0.390625 -4.21875 C 0.472656 -4.289062 0.570312 -4.328125 0.6875 -4.328125 C 0.8125 -4.328125 0.914062 -4.289062 1 -4.21875 C 1.082031 -4.144531 1.125 -4.050781 1.125 -3.9375 C 1.125 -3.820312 1.082031 -3.722656 1 -3.640625 C 0.914062 -3.566406 0.8125 -3.53125 0.6875 -3.53125 Z M 1.03125 0 L 0.359375 0 L 0.359375 -3.125 L 1.03125 -3.125 Z M 1.03125 0 "/></g></g><g style="fill:#525252;fill-opacity:1;"><g transform="translate(50.920977, 28.081401)"><path style="stroke:none" d="M 1.796875 0.0625 C 1.484375 0.0625 1.207031 -0.00390625 0.96875 -0.140625 C 0.738281 -0.285156 0.554688 -0.476562 0.421875 -0.71875 C 0.296875 -0.96875 0.234375 -1.253906 0.234375 -1.578125 C 0.234375 -1.890625 0.296875 -2.164062 0.421875 -2.40625 C 0.554688 -2.65625 0.738281 -2.847656 0.96875 -2.984375 C 1.207031 -3.117188 1.484375 -3.1875 1.796875 -3.1875 C 2.160156 -3.1875 2.46875 -3.09375 2.71875 -2.90625 C 2.976562 -2.71875 3.144531 -2.460938 3.21875 -2.140625 L 2.5 -2.140625 C 2.445312 -2.296875 2.359375 -2.414062 2.234375 -2.5 C 2.109375 -2.59375 1.960938 -2.640625 1.796875 -2.640625 C 1.535156 -2.640625 1.320312 -2.539062 1.15625 -2.34375 C 0.988281 -2.144531 0.90625 -1.890625 0.90625 -1.578125 C 0.90625 -1.242188 0.988281 -0.976562 1.15625 -0.78125 C 1.320312 -0.59375 1.535156 -0.5 1.796875 -0.5 C 1.984375 -0.5 2.140625 -0.546875 2.265625 -0.640625 C 2.398438 -0.734375 2.484375 -0.863281 2.515625 -1.03125 L 3.234375 -1.03125 C 3.160156 -0.6875 2.992188 -0.414062 2.734375 -0.21875 C 2.472656 -0.03125 2.160156 0.0625 1.796875 0.0625 Z M 1.796875 0.0625 "/></g></g><g style="fill:#525252;fill-opacity:1;"><g transform="translate(54.35232, 28.081401)"><path style="stroke:none" d="M 1.25 0.0625 C 0.957031 0.0625 0.710938 -0.015625 0.515625 -0.171875 C 0.328125 -0.328125 0.234375 -0.550781 0.234375 -0.84375 C 0.234375 -1 0.265625 -1.132812 0.328125 -1.25 C 0.390625 -1.363281 0.472656 -1.457031 0.578125 -1.53125 C 0.671875 -1.601562 0.78125 -1.660156 0.90625 -1.703125 C 1.03125 -1.742188 1.160156 -1.78125 1.296875 -1.8125 L 2.296875 -2 C 2.285156 -2.207031 2.226562 -2.367188 2.125 -2.484375 C 2.007812 -2.597656 1.851562 -2.65625 1.65625 -2.65625 C 1.5 -2.65625 1.359375 -2.609375 1.234375 -2.515625 C 1.117188 -2.429688 1.046875 -2.304688 1.015625 -2.140625 L 0.359375 -2.140625 C 0.390625 -2.378906 0.46875 -2.570312 0.59375 -2.71875 C 0.726562 -2.875 0.890625 -2.988281 1.078125 -3.0625 C 1.265625 -3.144531 1.457031 -3.1875 1.65625 -3.1875 C 1.84375 -3.1875 2.015625 -3.160156 2.171875 -3.109375 C 2.335938 -3.054688 2.476562 -2.976562 2.59375 -2.875 C 2.71875 -2.757812 2.800781 -2.632812 2.84375 -2.5 C 2.894531 -2.363281 2.925781 -2.222656 2.9375 -2.078125 C 2.945312 -1.941406 2.953125 -1.8125 2.953125 -1.6875 L 2.953125 0 L 2.28125 0 L 2.28125 -0.453125 C 2.207031 -0.304688 2.101562 -0.191406 1.96875 -0.109375 C 1.875 -0.046875 1.765625 -0.00390625 1.640625 0.015625 C 1.523438 0.046875 1.394531 0.0625 1.25 0.0625 Z M 1.40625 -0.46875 C 1.550781 -0.46875 1.691406 -0.503906 1.828125 -0.578125 C 2.015625 -0.660156 2.140625 -0.773438 2.203125 -0.921875 C 2.265625 -1.078125 2.296875 -1.269531 2.296875 -1.5 L 1.46875 -1.34375 C 1.25 -1.289062 1.09375 -1.222656 1 -1.140625 C 0.925781 -1.066406 0.890625 -0.972656 0.890625 -0.859375 C 0.890625 -0.734375 0.9375 -0.632812 1.03125 -0.5625 C 1.125 -0.5 1.25 -0.46875 1.40625 -0.46875 Z M 1.40625 -0.46875 "/></g></g><g style="fill:#525252;fill-opacity:1;"><g transform="translate(57.627184, 28.081401)"><path style="stroke:none" d="M 1.484375 0 L 1.078125 0 C 0.847656 0 0.664062 -0.0507812 0.53125 -0.15625 C 0.40625 -0.257812 0.34375 -0.445312 0.34375 -0.71875 L 0.34375 -4.265625 L 1 -4.265625 L 1 -0.890625 C 1 -0.773438 1.019531 -0.6875 1.0625 -0.625 C 1.101562 -0.570312 1.179688 -0.546875 1.296875 -0.546875 L 1.484375 -0.546875 Z M 1.484375 0 "/></g></g><g style="fill:#525252;fill-opacity:1;"><g transform="translate(59.264616, 28.081401)"><path style="stroke:none" d=""/></g></g><g style="fill:#525252;fill-opacity:1;"><g transform="translate(60.784687, 28.081401)"><path style="stroke:none" d="M 1.03125 0 L 0.359375 0 L 0.359375 -4.265625 L 1.03125 -4.265625 L 1.03125 -2.703125 C 1.164062 -2.890625 1.300781 -3.015625 1.4375 -3.078125 C 1.582031 -3.148438 1.738281 -3.1875 1.90625 -3.1875 C 2.175781 -3.1875 2.382812 -3.132812 2.53125 -3.03125 C 2.675781 -2.9375 2.785156 -2.816406 2.859375 -2.671875 C 2.921875 -2.535156 2.957031 -2.394531 2.96875 -2.25 C 2.988281 -2.101562 3 -1.960938 3 -1.828125 L 3 0 L 2.328125 0 L 2.328125 -1.828125 C 2.328125 -2.140625 2.273438 -2.359375 2.171875 -2.484375 C 2.078125 -2.578125 1.9375 -2.625 1.75 -2.625 C 1.519531 -2.625 1.347656 -2.554688 1.234375 -2.421875 C 1.160156 -2.335938 1.109375 -2.222656 1.078125 -2.078125 C 1.046875 -1.941406 1.03125 -1.75 1.03125 -1.5 Z M 1.03125 0 "/></g></g><g style="fill:#525252;fill-opacity:1;"><g transform="translate(64.115436, 28.081401)"><path style="stroke:none" d="M 1.8125 0.0625 C 1.5 0.0625 1.222656 -0.00390625 0.984375 -0.140625 C 0.742188 -0.285156 0.554688 -0.476562 0.421875 -0.71875 C 0.296875 -0.96875 0.234375 -1.253906 0.234375 -1.578125 C 0.234375 -1.890625 0.296875 -2.164062 0.421875 -2.40625 C 0.554688 -2.65625 0.742188 -2.847656 0.984375 -2.984375 C 1.222656 -3.117188 1.5 -3.1875 1.8125 -3.1875 C 2.113281 -3.1875 2.382812 -3.117188 2.625 -2.984375 C 2.863281 -2.847656 3.050781 -2.65625 3.1875 -2.40625 C 3.320312 -2.164062 3.390625 -1.890625 3.390625 -1.578125 C 3.390625 -1.253906 3.320312 -0.96875 3.1875 -0.71875 C 3.050781 -0.476562 2.863281 -0.285156 2.625 -0.140625 C 2.394531 -0.00390625 2.125 0.0625 1.8125 0.0625 Z M 1.8125 -0.515625 C 1.976562 -0.515625 2.128906 -0.554688 2.265625 -0.640625 C 2.410156 -0.734375 2.519531 -0.859375 2.59375 -1.015625 C 2.664062 -1.179688 2.703125 -1.367188 2.703125 -1.578125 C 2.703125 -1.773438 2.664062 -1.953125 2.59375 -2.109375 C 2.519531 -2.265625 2.410156 -2.382812 2.265625 -2.46875 C 2.128906 -2.5625 1.976562 -2.609375 1.8125 -2.609375 C 1.632812 -2.609375 1.476562 -2.5625 1.34375 -2.46875 C 1.207031 -2.382812 1.097656 -2.265625 1.015625 -2.109375 C 0.941406 -1.953125 0.90625 -1.773438 0.90625 -1.578125 C 0.90625 -1.367188 0.941406 -1.179688 1.015625 -1.015625 C 1.097656 -0.859375 1.207031 -0.734375 1.34375 -0.640625 C 1.476562 -0.554688 1.632812 -0.515625 1.8125 -0.515625 Z M 1.8125 -0.515625 "/></g></g><g style="fill:#525252;fill-opacity:1;"><g transform="translate(67.731198, 28.081401)"><path style="stroke:none" d="M 1.671875 0.0625 C 1.429688 0.0625 1.203125 0.0234375 0.984375 -0.046875 C 0.773438 -0.128906 0.601562 -0.25 0.46875 -0.40625 C 0.332031 -0.570312 0.242188 -0.78125 0.203125 -1.03125 L 0.875 -1.03125 C 0.914062 -0.851562 1.003906 -0.710938 1.140625 -0.609375 C 1.285156 -0.515625 1.460938 -0.46875 1.671875 -0.46875 C 1.847656 -0.46875 1.992188 -0.503906 2.109375 -0.578125 C 2.222656 -0.648438 2.28125 -0.75 2.28125 -0.875 C 2.28125 -0.976562 2.242188 -1.054688 2.171875 -1.109375 C 2.097656 -1.171875 2 -1.21875 1.875 -1.25 C 1.757812 -1.289062 1.632812 -1.328125 1.5 -1.359375 C 1.363281 -1.378906 1.226562 -1.40625 1.09375 -1.4375 C 0.957031 -1.476562 0.832031 -1.53125 0.71875 -1.59375 C 0.601562 -1.65625 0.507812 -1.738281 0.4375 -1.84375 C 0.363281 -1.957031 0.328125 -2.097656 0.328125 -2.265625 C 0.328125 -2.472656 0.378906 -2.644531 0.484375 -2.78125 C 0.597656 -2.914062 0.742188 -3.015625 0.921875 -3.078125 C 1.109375 -3.148438 1.304688 -3.1875 1.515625 -3.1875 C 1.867188 -3.1875 2.164062 -3.09375 2.40625 -2.90625 C 2.65625 -2.726562 2.804688 -2.472656 2.859375 -2.140625 L 2.234375 -2.140625 C 2.191406 -2.316406 2.101562 -2.445312 1.96875 -2.53125 C 1.84375 -2.613281 1.691406 -2.65625 1.515625 -2.65625 C 1.347656 -2.65625 1.21875 -2.625 1.125 -2.5625 C 1.03125 -2.5 0.984375 -2.410156 0.984375 -2.296875 C 0.984375 -2.203125 1.015625 -2.128906 1.078125 -2.078125 C 1.148438 -2.023438 1.242188 -1.984375 1.359375 -1.953125 C 1.472656 -1.921875 1.597656 -1.894531 1.734375 -1.875 C 1.867188 -1.84375 2.003906 -1.804688 2.140625 -1.765625 C 2.285156 -1.734375 2.414062 -1.6875 2.53125 -1.625 C 2.65625 -1.5625 2.753906 -1.472656 2.828125 -1.359375 C 2.898438 -1.253906 2.9375 -1.109375 2.9375 -0.921875 C 2.9375 -0.628906 2.828125 -0.390625 2.609375 -0.203125 C 2.390625 -0.0234375 2.078125 0.0625 1.671875 0.0625 Z M 1.671875 0.0625 "/></g></g><g style="fill:#525252;fill-opacity:1;"><g transform="translate(70.911057, 28.081401)"><path style="stroke:none" d="M 1.953125 -3.1875 C 2.234375 -3.1875 2.472656 -3.117188 2.671875 -2.984375 C 2.878906 -2.847656 3.039062 -2.65625 3.15625 -2.40625 C 3.269531 -2.164062 3.328125 -1.882812 3.328125 -1.5625 C 3.328125 -1.25 3.269531 -0.96875 3.15625 -0.71875 C 3.039062 -0.476562 2.878906 -0.285156 2.671875 -0.140625 C 2.472656 -0.00390625 2.234375 0.0625 1.953125 0.0625 C 1.765625 0.0625 1.597656 0.03125 1.453125 -0.03125 C 1.304688 -0.101562 1.164062 -0.234375 1.03125 -0.421875 L 1.03125 1.140625 L 0.359375 1.140625 L 0.359375 -3.125 L 1.03125 -3.125 L 1.03125 -2.703125 C 1.164062 -2.890625 1.304688 -3.015625 1.453125 -3.078125 C 1.597656 -3.148438 1.765625 -3.1875 1.953125 -3.1875 Z M 1.828125 -2.625 C 1.660156 -2.625 1.507812 -2.578125 1.375 -2.484375 C 1.25 -2.390625 1.144531 -2.265625 1.0625 -2.109375 C 0.988281 -1.953125 0.953125 -1.769531 0.953125 -1.5625 C 0.953125 -1.363281 0.988281 -1.179688 1.0625 -1.015625 C 1.144531 -0.859375 1.25 -0.734375 1.375 -0.640625 C 1.507812 -0.554688 1.660156 -0.515625 1.828125 -0.515625 C 2.003906 -0.515625 2.15625 -0.554688 2.28125 -0.640625 C 2.40625 -0.734375 2.5 -0.859375 2.5625 -1.015625 C 2.632812 -1.179688 2.671875 -1.363281 2.671875 -1.5625 C 2.671875 -1.769531 2.632812 -1.953125 2.5625 -2.109375 C 2.5 -2.265625 2.40625 -2.390625 2.28125 -2.484375 C 2.15625 -2.578125 2.003906 -2.625 1.828125 -2.625 Z M 1.828125 -2.625 "/></g></g><g style="fill:#525252;fill-opacity:1;"><g transform="translate(74.4877, 28.081401)"><path style="stroke:none" d="M 0.6875 -3.53125 C 0.570312 -3.53125 0.472656 -3.566406 0.390625 -3.640625 C 0.304688 -3.722656 0.265625 -3.820312 0.265625 -3.9375 C 0.265625 -4.050781 0.304688 -4.144531 0.390625 -4.21875 C 0.472656 -4.289062 0.570312 -4.328125 0.6875 -4.328125 C 0.8125 -4.328125 0.914062 -4.289062 1 -4.21875 C 1.082031 -4.144531 1.125 -4.050781 1.125 -3.9375 C 1.125 -3.820312 1.082031 -3.722656 1 -3.640625 C 0.914062 -3.566406 0.8125 -3.53125 0.6875 -3.53125 Z M 1.03125 0 L 0.359375 0 L 0.359375 -3.125 L 1.03125 -3.125 Z M 1.03125 0 "/></g></g><g style="fill:#525252;fill-opacity:1;"><g transform="translate(75.868062, 28.081401)"><path style="stroke:none" d="M 1.90625 0 L 1.34375 0 C 1.113281 0 0.929688 -0.0507812 0.796875 -0.15625 C 0.671875 -0.257812 0.609375 -0.445312 0.609375 -0.71875 L 0.609375 -2.578125 L 0.140625 -2.578125 L 0.140625 -3.125 L 0.609375 -3.125 L 0.609375 -4.265625 L 1.265625 -4.265625 L 1.265625 -3.125 L 1.90625 -3.125 L 1.90625 -2.578125 L 1.265625 -2.578125 L 1.265625 -0.90625 C 1.265625 -0.800781 1.28125 -0.710938 1.3125 -0.640625 C 1.34375 -0.578125 1.429688 -0.546875 1.578125 -0.546875 L 1.90625 -0.546875 Z M 1.90625 0 "/></g></g><g style="fill:#525252;fill-opacity:1;"><g transform="translate(77.969338, 28.081401)"><path style="stroke:none" d="M 1.25 0.0625 C 0.957031 0.0625 0.710938 -0.015625 0.515625 -0.171875 C 0.328125 -0.328125 0.234375 -0.550781 0.234375 -0.84375 C 0.234375 -1 0.265625 -1.132812 0.328125 -1.25 C 0.390625 -1.363281 0.472656 -1.457031 0.578125 -1.53125 C 0.671875 -1.601562 0.78125 -1.660156 0.90625 -1.703125 C 1.03125 -1.742188 1.160156 -1.78125 1.296875 -1.8125 L 2.296875 -2 C 2.285156 -2.207031 2.226562 -2.367188 2.125 -2.484375 C 2.007812 -2.597656 1.851562 -2.65625 1.65625 -2.65625 C 1.5 -2.65625 1.359375 -2.609375 1.234375 -2.515625 C 1.117188 -2.429688 1.046875 -2.304688 1.015625 -2.140625 L 0.359375 -2.140625 C 0.390625 -2.378906 0.46875 -2.570312 0.59375 -2.71875 C 0.726562 -2.875 0.890625 -2.988281 1.078125 -3.0625 C 1.265625 -3.144531 1.457031 -3.1875 1.65625 -3.1875 C 1.84375 -3.1875 2.015625 -3.160156 2.171875 -3.109375 C 2.335938 -3.054688 2.476562 -2.976562 2.59375 -2.875 C 2.71875 -2.757812 2.800781 -2.632812 2.84375 -2.5 C 2.894531 -2.363281 2.925781 -2.222656 2.9375 -2.078125 C 2.945312 -1.941406 2.953125 -1.8125 2.953125 -1.6875 L 2.953125 0 L 2.28125 0 L 2.28125 -0.453125 C 2.207031 -0.304688 2.101562 -0.191406 1.96875 -0.109375 C 1.875 -0.046875 1.765625 -0.00390625 1.640625 0.015625 C 1.523438 0.046875 1.394531 0.0625 1.25 0.0625 Z M 1.40625 -0.46875 C 1.550781 -0.46875 1.691406 -0.503906 1.828125 -0.578125 C 2.015625 -0.660156 2.140625 -0.773438 2.203125 -0.921875 C 2.265625 -1.078125 2.296875 -1.269531 2.296875 -1.5 L 1.46875 -1.34375 C 1.25 -1.289062 1.09375 -1.222656 1 -1.140625 C 0.925781 -1.066406 0.890625 -0.972656 0.890625 -0.859375 C 0.890625 -0.734375 0.9375 -0.632812 1.03125 -0.5625 C 1.125 -0.5 1.25 -0.46875 1.40625 -0.46875 Z M 1.40625 -0.46875 "/></g></g><g style="fill:#525252;fill-opacity:1;"><g transform="translate(81.244201, 28.081401)"><path style="stroke:none" d="M 1.484375 0 L 1.078125 0 C 0.847656 0 0.664062 -0.0507812 0.53125 -0.15625 C 0.40625 -0.257812 0.34375 -0.445312 0.34375 -0.71875 L 0.34375 -4.265625 L 1 -4.265625 L 1 -0.890625 C 1 -0.773438 1.019531 -0.6875 1.0625 -0.625 C 1.101562 -0.570312 1.179688 -0.546875 1.296875 -0.546875 L 1.484375 -0.546875 Z M 1.484375 0 "/></g></g></g></svg>