<svg xmlns="http://www.w3.org/2000/svg" xmlns:xlink="http://www.w3.org/1999/xlink" width="170" zoomAndPan="magnify" viewBox="0 0 127.5 37.5" height="50" preserveAspectRatio="xMidYMid meet" version="1.2"><defs><clipPath id="784063c629"><path d="M 25 1.660156 L 47.40625 1.660156 L 47.40625 24 L 25 24 Z M 25 1.660156 "/></clipPath><clipPath id="dd4dc7bafd"><path d="M 13.359375 13 L 36 13 L 36 35.707031 L 13.359375 35.707031 Z M 13.359375 13 "/></clipPath></defs><g id="23355e6ba1"><g clip-rule="nonzero" clip-path="url(#784063c629)"><path style=" stroke:none;fill-rule:nonzero;fill:#525252;fill-opacity:1;" d="M 47.152344 18.53125 C 47.152344 21.332031 44.886719 23.597656 42.085938 23.597656 L 31.714844 23.597656 C 28.128906 23.597656 25.214844 20.683594 25.214844 17.097656 L 25.214844 6.726562 C 25.214844 3.925781 27.480469 1.660156 30.28125 1.660156 C 33.082031 1.660156 35.347656 3.925781 35.347656 6.726562 L 35.347656 13.46875 L 42.085938 13.46875 C 44.886719 13.46875 47.152344 15.742188 47.152344 18.53125 Z M 47.152344 18.53125 "/></g><g clip-rule="nonzero" clip-path="url(#dd4dc7bafd)"><path style=" stroke:none;fill-rule:nonzero;fill:#b4857b;fill-opacity:1;" d="M 13.371094 18.464844 C 13.371094 15.667969 15.640625 13.402344 18.4375 13.402344 L 28.8125 13.402344 C 32.398438 13.402344 35.308594 16.3125 35.308594 19.898438 L 35.308594 30.273438 C 35.308594 33.070312 33.042969 35.335938 30.242188 35.335938 C 27.445312 35.335938 25.179688 33.070312 25.179688 30.273438 L 25.179688 23.53125 L 18.4375 23.53125 C 15.640625 23.53125 13.371094 21.265625 13.371094 18.464844 Z M 13.371094 18.464844 "/></g><path style=" stroke:none;fill-rule:nonzero;fill:#966c41;fill-opacity:1;" d="M 35.308594 19.898438 L 35.308594 23.597656 L 31.714844 23.597656 C 28.128906 23.597656 25.214844 20.683594 25.214844 17.097656 L 25.214844 13.402344 L 28.8125 13.402344 C 32.398438 13.402344 35.308594 16.3125 35.308594 19.898438 Z M 35.308594 19.898438 "/><g style="fill:#000000;fill-opacity:1;"><g transform="translate(52.647291, 16.154784)"><path style="stroke:none" d="M 1.453125 -11.28125 L 3.625 -11.28125 L 7.484375 -6.4375 L 11.359375 -11.28125 L 13.53125 -11.28125 L 13.53125 0 L 11.109375 0 L 11.109375 -7.40625 L 7.484375 -2.90625 L 3.859375 -7.40625 L 3.859375 0 L 1.453125 0 Z M 1.453125 -11.28125 "/></g></g><g style="fill:#000000;fill-opacity:1;"><g transform="translate(67.301993, 16.154784)"><path style="stroke:none" d="M 4.75 0.15625 C 4.164062 0.15625 3.617188 0.0507812 3.109375 -0.15625 C 2.609375 -0.375 2.164062 -0.671875 1.78125 -1.046875 C 1.394531 -1.421875 1.09375 -1.851562 0.875 -2.34375 C 0.664062 -2.84375 0.5625 -3.378906 0.5625 -3.953125 C 0.5625 -4.503906 0.664062 -5.03125 0.875 -5.53125 C 1.09375 -6.03125 1.390625 -6.46875 1.765625 -6.84375 C 2.140625 -7.21875 2.570312 -7.515625 3.0625 -7.734375 C 3.5625 -7.953125 4.097656 -8.0625 4.671875 -8.0625 C 5.222656 -8.0625 5.734375 -7.953125 6.203125 -7.734375 C 6.679688 -7.523438 7.097656 -7.242188 7.453125 -6.890625 C 7.804688 -6.535156 8.085938 -6.117188 8.296875 -5.640625 C 8.515625 -5.160156 8.625 -4.648438 8.625 -4.109375 C 8.625 -3.953125 8.617188 -3.816406 8.609375 -3.703125 C 8.597656 -3.597656 8.582031 -3.503906 8.5625 -3.421875 C 8.550781 -3.304688 8.539062 -3.210938 8.53125 -3.140625 L 2.8125 -3.140625 C 2.9375 -2.773438 3.164062 -2.453125 3.5 -2.171875 C 3.84375 -1.898438 4.3125 -1.765625 4.90625 -1.765625 C 5.25 -1.765625 5.550781 -1.804688 5.8125 -1.890625 C 6.070312 -1.984375 6.289062 -2.085938 6.46875 -2.203125 C 6.675781 -2.335938 6.851562 -2.488281 7 -2.65625 L 8.140625 -1.125 C 7.898438 -0.882812 7.609375 -0.671875 7.265625 -0.484375 C 6.972656 -0.316406 6.617188 -0.164062 6.203125 -0.03125 C 5.785156 0.09375 5.300781 0.15625 4.75 0.15625 Z M 6.359375 -4.75 C 6.242188 -5.113281 6.03125 -5.429688 5.71875 -5.703125 C 5.414062 -5.984375 5.039062 -6.125 4.59375 -6.125 C 4.144531 -6.125 3.765625 -5.984375 3.453125 -5.703125 C 3.148438 -5.429688 2.9375 -5.113281 2.8125 -4.75 Z M 6.359375 -4.75 "/></g></g><g style="fill:#000000;fill-opacity:1;"><g transform="translate(76.159233, 16.154784)"><path style="stroke:none" d="M 4.109375 0.15625 C 3.648438 0.15625 3.203125 0.0546875 2.765625 -0.140625 C 2.335938 -0.335938 1.957031 -0.617188 1.625 -0.984375 C 1.300781 -1.347656 1.039062 -1.78125 0.84375 -2.28125 C 0.65625 -2.789062 0.5625 -3.347656 0.5625 -3.953125 C 0.5625 -4.546875 0.65625 -5.09375 0.84375 -5.59375 C 1.039062 -6.101562 1.300781 -6.535156 1.625 -6.890625 C 1.957031 -7.253906 2.335938 -7.539062 2.765625 -7.75 C 3.203125 -7.957031 3.648438 -8.0625 4.109375 -8.0625 C 4.523438 -8.0625 4.890625 -7.992188 5.203125 -7.859375 C 5.515625 -7.722656 5.78125 -7.570312 6 -7.40625 C 6.238281 -7.21875 6.441406 -7.003906 6.609375 -6.765625 L 6.6875 -6.765625 L 6.6875 -11.28125 L 8.859375 -11.28125 L 8.859375 0 L 6.6875 0 L 6.6875 -1.125 L 6.609375 -1.125 C 6.441406 -0.882812 6.238281 -0.671875 6 -0.484375 C 5.78125 -0.316406 5.515625 -0.164062 5.203125 -0.03125 C 4.890625 0.09375 4.523438 0.15625 4.109375 0.15625 Z M 4.75 -1.859375 C 5.03125 -1.859375 5.289062 -1.910156 5.53125 -2.015625 C 5.78125 -2.117188 5.992188 -2.257812 6.171875 -2.4375 C 6.359375 -2.625 6.503906 -2.847656 6.609375 -3.109375 C 6.710938 -3.367188 6.765625 -3.648438 6.765625 -3.953125 C 6.765625 -4.242188 6.710938 -4.519531 6.609375 -4.78125 C 6.503906 -5.039062 6.359375 -5.257812 6.171875 -5.4375 C 5.992188 -5.625 5.78125 -5.769531 5.53125 -5.875 C 5.289062 -5.988281 5.03125 -6.046875 4.75 -6.046875 C 4.46875 -6.046875 4.203125 -5.988281 3.953125 -5.875 C 3.710938 -5.769531 3.5 -5.625 3.3125 -5.4375 C 3.132812 -5.257812 2.992188 -5.039062 2.890625 -4.78125 C 2.785156 -4.519531 2.734375 -4.242188 2.734375 -3.953125 C 2.734375 -3.648438 2.785156 -3.367188 2.890625 -3.109375 C 2.992188 -2.847656 3.132812 -2.625 3.3125 -2.4375 C 3.5 -2.257812 3.710938 -2.117188 3.953125 -2.015625 C 4.203125 -1.910156 4.46875 -1.859375 4.75 -1.859375 Z M 4.75 -1.859375 "/></g></g><g style="fill:#000000;fill-opacity:1;"><g transform="translate(85.821674, 16.154784)"><path style="stroke:none" d="M 1.046875 -7.890625 L 3.21875 -7.890625 L 3.21875 0 L 1.046875 0 Z M 2.125 -8.9375 C 1.78125 -8.9375 1.488281 -9.054688 1.25 -9.296875 C 1.007812 -9.546875 0.890625 -9.832031 0.890625 -10.15625 C 0.890625 -10.46875 1.007812 -10.742188 1.25 -10.984375 C 1.5 -11.234375 1.796875 -11.359375 2.140625 -11.359375 C 2.484375 -11.359375 2.773438 -11.234375 3.015625 -10.984375 C 3.265625 -10.742188 3.390625 -10.46875 3.390625 -10.15625 C 3.390625 -9.832031 3.265625 -9.546875 3.015625 -9.296875 C 2.765625 -9.054688 2.46875 -8.9375 2.125 -8.9375 Z M 2.125 -8.9375 "/></g></g><g style="fill:#000000;fill-opacity:1;"><g transform="translate(89.767175, 16.154784)"><path style="stroke:none" d="M 4.75 0.15625 C 4.164062 0.15625 3.617188 0.0507812 3.109375 -0.15625 C 2.609375 -0.375 2.164062 -0.671875 1.78125 -1.046875 C 1.394531 -1.421875 1.09375 -1.851562 0.875 -2.34375 C 0.664062 -2.84375 0.5625 -3.378906 0.5625 -3.953125 C 0.5625 -4.503906 0.664062 -5.03125 0.875 -5.53125 C 1.09375 -6.03125 1.394531 -6.46875 1.78125 -6.84375 C 2.164062 -7.21875 2.609375 -7.515625 3.109375 -7.734375 C 3.617188 -7.953125 4.164062 -8.0625 4.75 -8.0625 C 5.320312 -8.0625 5.8125 -7.976562 6.21875 -7.8125 C 6.625 -7.644531 6.96875 -7.457031 7.25 -7.25 C 7.570312 -7.007812 7.84375 -6.738281 8.0625 -6.4375 L 6.6875 -5.078125 C 6.53125 -5.253906 6.359375 -5.414062 6.171875 -5.5625 C 5.992188 -5.675781 5.785156 -5.785156 5.546875 -5.890625 C 5.316406 -5.992188 5.050781 -6.046875 4.75 -6.046875 C 4.46875 -6.046875 4.203125 -5.988281 3.953125 -5.875 C 3.710938 -5.769531 3.5 -5.625 3.3125 -5.4375 C 3.132812 -5.257812 2.992188 -5.039062 2.890625 -4.78125 C 2.785156 -4.519531 2.734375 -4.242188 2.734375 -3.953125 C 2.734375 -3.648438 2.785156 -3.367188 2.890625 -3.109375 C 2.992188 -2.847656 3.132812 -2.625 3.3125 -2.4375 C 3.5 -2.257812 3.710938 -2.117188 3.953125 -2.015625 C 4.203125 -1.910156 4.46875 -1.859375 4.75 -1.859375 C 5.050781 -1.859375 5.316406 -1.90625 5.546875 -2 C 5.785156 -2.101562 5.992188 -2.210938 6.171875 -2.328125 C 6.359375 -2.472656 6.53125 -2.632812 6.6875 -2.8125 L 8.0625 -1.453125 C 7.84375 -1.148438 7.570312 -0.878906 7.25 -0.640625 C 6.96875 -0.441406 6.625 -0.257812 6.21875 -0.09375 C 5.8125 0.0703125 5.320312 0.15625 4.75 0.15625 Z M 4.75 0.15625 "/></g></g><g style="fill:#000000;fill-opacity:1;"><g transform="translate(97.819211, 16.154784)"><path style="stroke:none" d="M 3.0625 0.15625 C 2.695312 0.15625 2.363281 0.101562 2.0625 0 C 1.769531 -0.113281 1.519531 -0.273438 1.3125 -0.484375 C 1.101562 -0.691406 0.9375 -0.929688 0.8125 -1.203125 C 0.695312 -1.472656 0.640625 -1.769531 0.640625 -2.09375 C 0.640625 -2.738281 0.847656 -3.289062 1.265625 -3.75 C 1.679688 -4.207031 2.253906 -4.5 2.984375 -4.625 L 5.484375 -5.078125 C 5.429688 -5.359375 5.289062 -5.601562 5.0625 -5.8125 C 4.832031 -6.019531 4.515625 -6.125 4.109375 -6.125 C 3.828125 -6.125 3.578125 -6.078125 3.359375 -5.984375 C 3.140625 -5.890625 2.953125 -5.785156 2.796875 -5.671875 C 2.617188 -5.546875 2.460938 -5.398438 2.328125 -5.234375 L 1.046875 -6.53125 C 1.273438 -6.800781 1.550781 -7.050781 1.875 -7.28125 C 2.144531 -7.476562 2.476562 -7.65625 2.875 -7.8125 C 3.28125 -7.976562 3.742188 -8.0625 4.265625 -8.0625 C 4.773438 -8.0625 5.234375 -7.976562 5.640625 -7.8125 C 6.054688 -7.65625 6.414062 -7.429688 6.71875 -7.140625 C 7.019531 -6.859375 7.25 -6.523438 7.40625 -6.140625 C 7.570312 -5.765625 7.65625 -5.351562 7.65625 -4.90625 L 7.65625 0 L 5.484375 0 L 5.484375 -0.96875 L 5.390625 -0.96875 C 5.222656 -0.75 5.023438 -0.5625 4.796875 -0.40625 C 4.609375 -0.25 4.363281 -0.113281 4.0625 0 C 3.769531 0.101562 3.4375 0.15625 3.0625 0.15625 Z M 3.78125 -1.609375 C 4.269531 -1.609375 4.675781 -1.769531 5 -2.09375 C 5.320312 -2.425781 5.484375 -2.859375 5.484375 -3.390625 L 5.484375 -3.546875 L 3.703125 -3.21875 C 3.421875 -3.164062 3.203125 -3.066406 3.046875 -2.921875 C 2.890625 -2.785156 2.8125 -2.617188 2.8125 -2.421875 C 2.8125 -2.171875 2.890625 -1.972656 3.046875 -1.828125 C 3.210938 -1.679688 3.457031 -1.609375 3.78125 -1.609375 Z M 3.78125 -1.609375 "/></g></g><g style="fill:#000000;fill-opacity:1;"><g transform="translate(106.19333, 16.154784)"><path style="stroke:none" d="M 1.125 -11.28125 L 3.296875 -11.28125 L 3.296875 0 L 1.125 0 Z M 1.125 -11.28125 "/></g></g><g style="fill:#000000;fill-opacity:1;"><g transform="translate(52.647291, 30.581312)"><path style="stroke:none" d="M 1.453125 -11.28125 L 3.859375 -11.28125 L 3.859375 -6.84375 L 8.703125 -6.84375 L 8.703125 -11.28125 L 11.109375 -11.28125 L 11.109375 0 L 8.703125 0 L 8.703125 -4.59375 L 3.859375 -4.59375 L 3.859375 0 L 1.453125 0 Z M 1.453125 -11.28125 "/></g></g><g style="fill:#000000;fill-opacity:1;"><g transform="translate(64.886384, 30.581312)"><path style="stroke:none" d="M 4.75 0.15625 C 4.164062 0.15625 3.617188 0.0507812 3.109375 -0.15625 C 2.609375 -0.375 2.164062 -0.671875 1.78125 -1.046875 C 1.394531 -1.421875 1.09375 -1.851562 0.875 -2.34375 C 0.664062 -2.84375 0.5625 -3.378906 0.5625 -3.953125 C 0.5625 -4.503906 0.664062 -5.03125 0.875 -5.53125 C 1.09375 -6.03125 1.394531 -6.46875 1.78125 -6.84375 C 2.164062 -7.21875 2.609375 -7.515625 3.109375 -7.734375 C 3.617188 -7.953125 4.164062 -8.0625 4.75 -8.0625 C 5.332031 -8.0625 5.878906 -7.953125 6.390625 -7.734375 C 6.898438 -7.515625 7.34375 -7.21875 7.71875 -6.84375 C 8.101562 -6.46875 8.398438 -6.03125 8.609375 -5.53125 C 8.828125 -5.03125 8.9375 -4.503906 8.9375 -3.953125 C 8.9375 -3.378906 8.828125 -2.84375 8.609375 -2.34375 C 8.398438 -1.851562 8.101562 -1.421875 7.71875 -1.046875 C 7.34375 -0.671875 6.898438 -0.375 6.390625 -0.15625 C 5.878906 0.0507812 5.332031 0.15625 4.75 0.15625 Z M 4.75 -1.859375 C 5.03125 -1.859375 5.289062 -1.910156 5.53125 -2.015625 C 5.78125 -2.117188 5.992188 -2.257812 6.171875 -2.4375 C 6.359375 -2.625 6.503906 -2.847656 6.609375 -3.109375 C 6.710938 -3.367188 6.765625 -3.648438 6.765625 -3.953125 C 6.765625 -4.242188 6.710938 -4.519531 6.609375 -4.78125 C 6.503906 -5.039062 6.359375 -5.257812 6.171875 -5.4375 C 5.992188 -5.625 5.78125 -5.769531 5.53125 -5.875 C 5.289062 -5.988281 5.03125 -6.046875 4.75 -6.046875 C 4.46875 -6.046875 4.203125 -5.988281 3.953125 -5.875 C 3.710938 -5.769531 3.5 -5.625 3.3125 -5.4375 C 3.132812 -5.257812 2.992188 -5.039062 2.890625 -4.78125 C 2.785156 -4.519531 2.734375 -4.242188 2.734375 -3.953125 C 2.734375 -3.648438 2.785156 -3.367188 2.890625 -3.109375 C 2.992188 -2.847656 3.132812 -2.625 3.3125 -2.4375 C 3.5 -2.257812 3.710938 -2.117188 3.953125 -2.015625 C 4.203125 -1.910156 4.46875 -1.859375 4.75 -1.859375 Z M 4.75 -1.859375 "/></g></g><g style="fill:#000000;fill-opacity:1;"><g transform="translate(74.065703, 30.581312)"><path style="stroke:none" d="M 3.625 0.15625 C 3.070312 0.15625 2.585938 0.0820312 2.171875 -0.0625 C 1.753906 -0.21875 1.398438 -0.382812 1.109375 -0.5625 C 0.765625 -0.769531 0.472656 -1.007812 0.234375 -1.28125 L 1.53125 -2.65625 C 1.6875 -2.488281 1.875 -2.335938 2.09375 -2.203125 C 2.28125 -2.085938 2.5 -1.984375 2.75 -1.890625 C 3.007812 -1.804688 3.300781 -1.765625 3.625 -1.765625 C 3.988281 -1.765625 4.238281 -1.816406 4.375 -1.921875 C 4.519531 -2.035156 4.59375 -2.171875 4.59375 -2.328125 C 4.59375 -2.484375 4.492188 -2.613281 4.296875 -2.71875 C 4.097656 -2.820312 3.847656 -2.921875 3.546875 -3.015625 C 3.242188 -3.109375 2.921875 -3.21875 2.578125 -3.34375 C 2.234375 -3.476562 1.910156 -3.640625 1.609375 -3.828125 C 1.304688 -4.023438 1.054688 -4.269531 0.859375 -4.5625 C 0.660156 -4.851562 0.5625 -5.210938 0.5625 -5.640625 C 0.5625 -5.960938 0.628906 -6.265625 0.765625 -6.546875 C 0.910156 -6.835938 1.113281 -7.097656 1.375 -7.328125 C 1.632812 -7.554688 1.960938 -7.734375 2.359375 -7.859375 C 2.753906 -7.992188 3.203125 -8.0625 3.703125 -8.0625 C 4.210938 -8.0625 4.65625 -7.992188 5.03125 -7.859375 C 5.414062 -7.734375 5.738281 -7.59375 6 -7.4375 C 6.289062 -7.257812 6.546875 -7.0625 6.765625 -6.84375 L 5.484375 -5.484375 C 5.347656 -5.597656 5.191406 -5.703125 5.015625 -5.796875 C 4.859375 -5.878906 4.671875 -5.953125 4.453125 -6.015625 C 4.234375 -6.085938 3.984375 -6.125 3.703125 -6.125 C 3.421875 -6.125 3.21875 -6.070312 3.09375 -5.96875 C 2.96875 -5.863281 2.90625 -5.753906 2.90625 -5.640625 C 2.90625 -5.484375 3.003906 -5.351562 3.203125 -5.25 C 3.398438 -5.15625 3.644531 -5.054688 3.9375 -4.953125 C 4.238281 -4.859375 4.5625 -4.75 4.90625 -4.625 C 5.25 -4.5 5.570312 -4.335938 5.875 -4.140625 C 6.175781 -3.941406 6.425781 -3.695312 6.625 -3.40625 C 6.820312 -3.125 6.921875 -2.765625 6.921875 -2.328125 C 6.921875 -1.992188 6.851562 -1.675781 6.71875 -1.375 C 6.582031 -1.070312 6.375 -0.804688 6.09375 -0.578125 C 5.8125 -0.347656 5.46875 -0.164062 5.0625 -0.03125 C 4.65625 0.09375 4.175781 0.15625 3.625 0.15625 Z M 3.625 0.15625 "/></g></g><g style="fill:#000000;fill-opacity:1;"><g transform="translate(81.070973, 30.581312)"><path style="stroke:none" d="M 1.046875 -7.890625 L 3.21875 -7.890625 L 3.21875 -6.765625 L 3.296875 -6.765625 C 3.460938 -7.003906 3.671875 -7.21875 3.921875 -7.40625 C 4.128906 -7.570312 4.382812 -7.722656 4.6875 -7.859375 C 5 -7.992188 5.367188 -8.0625 5.796875 -8.0625 C 6.253906 -8.0625 6.695312 -7.957031 7.125 -7.75 C 7.5625 -7.539062 7.941406 -7.253906 8.265625 -6.890625 C 8.597656 -6.535156 8.859375 -6.101562 9.046875 -5.59375 C 9.242188 -5.09375 9.34375 -4.546875 9.34375 -3.953125 C 9.34375 -3.347656 9.242188 -2.789062 9.046875 -2.28125 C 8.859375 -1.78125 8.597656 -1.347656 8.265625 -0.984375 C 7.941406 -0.617188 7.5625 -0.335938 7.125 -0.140625 C 6.695312 0.0546875 6.253906 0.15625 5.796875 0.15625 C 5.367188 0.15625 5 0.09375 4.6875 -0.03125 C 4.382812 -0.164062 4.128906 -0.316406 3.921875 -0.484375 C 3.671875 -0.671875 3.460938 -0.882812 3.296875 -1.125 L 3.21875 -1.125 L 3.21875 3.390625 L 1.046875 3.390625 Z M 5.15625 -1.859375 C 5.4375 -1.859375 5.695312 -1.910156 5.9375 -2.015625 C 6.1875 -2.117188 6.398438 -2.257812 6.578125 -2.4375 C 6.765625 -2.625 6.910156 -2.847656 7.015625 -3.109375 C 7.117188 -3.367188 7.171875 -3.648438 7.171875 -3.953125 C 7.171875 -4.242188 7.117188 -4.519531 7.015625 -4.78125 C 6.910156 -5.039062 6.765625 -5.257812 6.578125 -5.4375 C 6.398438 -5.625 6.1875 -5.769531 5.9375 -5.875 C 5.695312 -5.988281 5.4375 -6.046875 5.15625 -6.046875 C 4.875 -6.046875 4.609375 -5.988281 4.359375 -5.875 C 4.117188 -5.769531 3.90625 -5.625 3.71875 -5.4375 C 3.539062 -5.257812 3.398438 -5.039062 3.296875 -4.78125 C 3.191406 -4.519531 3.140625 -4.242188 3.140625 -3.953125 C 3.140625 -3.648438 3.191406 -3.367188 3.296875 -3.109375 C 3.398438 -2.847656 3.539062 -2.625 3.71875 -2.4375 C 3.90625 -2.257812 4.117188 -2.117188 4.359375 -2.015625 C 4.609375 -1.910156 4.875 -1.859375 5.15625 -1.859375 Z M 5.15625 -1.859375 "/></g></g><g style="fill:#000000;fill-opacity:1;"><g transform="translate(90.652897, 30.581312)"><path style="stroke:none" d="M 1.046875 -7.890625 L 3.21875 -7.890625 L 3.21875 0 L 1.046875 0 Z M 2.125 -8.9375 C 1.78125 -8.9375 1.488281 -9.054688 1.25 -9.296875 C 1.007812 -9.546875 0.890625 -9.832031 0.890625 -10.15625 C 0.890625 -10.46875 1.007812 -10.742188 1.25 -10.984375 C 1.5 -11.234375 1.796875 -11.359375 2.140625 -11.359375 C 2.484375 -11.359375 2.773438 -11.234375 3.015625 -10.984375 C 3.265625 -10.742188 3.390625 -10.46875 3.390625 -10.15625 C 3.390625 -9.832031 3.265625 -9.546875 3.015625 -9.296875 C 2.765625 -9.054688 2.46875 -8.9375 2.125 -8.9375 Z M 2.125 -8.9375 "/></g></g><g style="fill:#000000;fill-opacity:1;"><g transform="translate(94.598398, 30.581312)"><path style="stroke:none" d="M 4.34375 0.15625 C 3.539062 0.15625 2.894531 -0.09375 2.40625 -0.59375 C 1.925781 -1.09375 1.6875 -1.804688 1.6875 -2.734375 L 1.6875 -5.71875 L 0.328125 -5.71875 L 0.328125 -7.734375 L 1.046875 -7.734375 C 1.640625 -7.734375 1.9375 -8.054688 1.9375 -8.703125 L 1.9375 -10.15625 L 3.859375 -10.15625 L 3.859375 -7.734375 L 5.640625 -7.734375 L 5.640625 -5.71875 L 3.859375 -5.71875 L 3.859375 -3.0625 C 3.859375 -2.695312 3.953125 -2.414062 4.140625 -2.21875 C 4.335938 -2.03125 4.59375 -1.9375 4.90625 -1.9375 C 5.144531 -1.9375 5.359375 -1.960938 5.546875 -2.015625 C 5.640625 -2.035156 5.722656 -2.0625 5.796875 -2.09375 L 5.796875 -0.078125 C 5.671875 -0.0351562 5.53125 0.00390625 5.375 0.046875 C 5.25 0.078125 5.097656 0.101562 4.921875 0.125 C 4.742188 0.144531 4.550781 0.15625 4.34375 0.15625 Z M 4.34375 0.15625 "/></g></g><g style="fill:#000000;fill-opacity:1;"><g transform="translate(100.717947, 30.581312)"><path style="stroke:none" d="M 3.0625 0.15625 C 2.695312 0.15625 2.363281 0.101562 2.0625 0 C 1.769531 -0.113281 1.519531 -0.273438 1.3125 -0.484375 C 1.101562 -0.691406 0.9375 -0.929688 0.8125 -1.203125 C 0.695312 -1.472656 0.640625 -1.769531 0.640625 -2.09375 C 0.640625 -2.738281 0.847656 -3.289062 1.265625 -3.75 C 1.679688 -4.207031 2.253906 -4.5 2.984375 -4.625 L 5.484375 -5.078125 C 5.429688 -5.359375 5.289062 -5.601562 5.0625 -5.8125 C 4.832031 -6.019531 4.515625 -6.125 4.109375 -6.125 C 3.828125 -6.125 3.578125 -6.078125 3.359375 -5.984375 C 3.140625 -5.890625 2.953125 -5.785156 2.796875 -5.671875 C 2.617188 -5.546875 2.460938 -5.398438 2.328125 -5.234375 L 1.046875 -6.53125 C 1.273438 -6.800781 1.550781 -7.050781 1.875 -7.28125 C 2.144531 -7.476562 2.476562 -7.65625 2.875 -7.8125 C 3.28125 -7.976562 3.742188 -8.0625 4.265625 -8.0625 C 4.773438 -8.0625 5.234375 -7.976562 5.640625 -7.8125 C 6.054688 -7.65625 6.414062 -7.429688 6.71875 -7.140625 C 7.019531 -6.859375 7.25 -6.523438 7.40625 -6.140625 C 7.570312 -5.765625 7.65625 -5.351562 7.65625 -4.90625 L 7.65625 0 L 5.484375 0 L 5.484375 -0.96875 L 5.390625 -0.96875 C 5.222656 -0.75 5.023438 -0.5625 4.796875 -0.40625 C 4.609375 -0.25 4.363281 -0.113281 4.0625 0 C 3.769531 0.101562 3.4375 0.15625 3.0625 0.15625 Z M 3.78125 -1.609375 C 4.269531 -1.609375 4.675781 -1.769531 5 -2.09375 C 5.320312 -2.425781 5.484375 -2.859375 5.484375 -3.390625 L 5.484375 -3.546875 L 3.703125 -3.21875 C 3.421875 -3.164062 3.203125 -3.066406 3.046875 -2.921875 C 2.890625 -2.785156 2.8125 -2.617188 2.8125 -2.421875 C 2.8125 -2.171875 2.890625 -1.972656 3.046875 -1.828125 C 3.210938 -1.679688 3.457031 -1.609375 3.78125 -1.609375 Z M 3.78125 -1.609375 "/></g></g><g style="fill:#000000;fill-opacity:1;"><g transform="translate(109.092066, 30.581312)"><path style="stroke:none" d="M 1.125 -11.28125 L 3.296875 -11.28125 L 3.296875 0 L 1.125 0 Z M 1.125 -11.28125 "/></g></g></g></svg>