<svg xmlns="http://www.w3.org/2000/svg" xmlns:xlink="http://www.w3.org/1999/xlink" width="250" zoomAndPan="magnify" viewBox="0 0 187.92 196.08" height="250" preserveAspectRatio="xMidYMid meet" version="1.2"><defs><clipPath id="4336a73537"><path d="M 15.144531 27.175781 L 171.910156 27.175781 L 171.910156 159.304688 L 15.144531 159.304688 Z M 15.144531 27.175781 "/></clipPath><clipPath id="e622e2fd86"><path d="M 15.144531 79 L 171.910156 79 L 171.910156 141 L 15.144531 141 Z M 15.144531 79 "/></clipPath></defs><g id="7d4b1c4de9"><g clip-rule="nonzero" clip-path="url(#4336a73537)"><path style="fill:none;stroke-width:10.742;stroke-linecap:round;stroke-linejoin:round;stroke:#000000;stroke-opacity:1;stroke-miterlimit:10;" d="M 5.371563 5.37024 L 265.020902 5.37024 L 265.020902 222.959689 L 5.371563 222.959689 Z M 5.371563 5.37024 " transform="matrix(0.577401,0,0,0.578121,15.492202,27.246916)"/></g><g clip-rule="nonzero" clip-path="url(#e622e2fd86)"><path style="fill:none;stroke-width:10.742;stroke-linecap:round;stroke-linejoin:round;stroke:#000000;stroke-opacity:1;stroke-miterlimit:10;" d="M 5.371563 190.047283 L 63.430725 136.107694 L 114.169913 190.047283 L 200.108568 95.877667 L 265.020902 159.878141 " transform="matrix(0.577401,0,0,0.578121,15.492202,27.246916)"/></g><path style="fill:none;stroke-width:10.742;stroke-linecap:round;stroke-linejoin:round;stroke:#000000;stroke-opacity:1;stroke-miterlimit:10;" d="M 135.189468 74.397778 C 135.189468 88.539774 123.729176 99.999319 109.589856 99.999319 C 95.450535 99.999319 83.997009 88.539774 83.997009 74.397778 C 83.997009 60.262538 95.457301 48.802994 109.596621 48.802994 C 123.742707 48.802994 135.189468 60.262538 135.189468 74.397778 Z M 135.189468 74.397778 " transform="matrix(0.577401,0,0,0.578121,15.492202,27.246916)"/></g></svg>