<svg xmlns="http://www.w3.org/2000/svg" xmlns:xlink="http://www.w3.org/1999/xlink" width="250" zoomAndPan="magnify" viewBox="0 0 187.92 196.08" height="250" preserveAspectRatio="xMidYMid meet" version="1.2"><defs><clipPath id="9c449c781e"><path d="M 9.433594 36.109375 L 178.144531 36.109375 L 178.144531 150.324219 L 9.433594 150.324219 Z M 9.433594 36.109375 "/></clipPath></defs><g id="fc976a6b98"><g clip-rule="nonzero" clip-path="url(#9c449c781e)"><path style=" stroke:none;fill-rule:nonzero;fill:#000000;fill-opacity:1;" d="M 162.058594 60.886719 L 157.722656 60.886719 L 157.722656 57.253906 C 157.722656 53.207031 155.28125 49.695312 151.664062 48.519531 L 151.507812 48.476562 L 102.511719 37.9375 C 96.777344 36.109375 90.730469 36.109375 85 37.9375 L 36.164062 48.441406 L 36.003906 48.476562 L 35.847656 48.519531 C 32.238281 49.6875 29.8125 53.195312 29.8125 57.242188 L 29.8125 60.875 L 25.472656 60.875 C 16.648438 60.875 9.46875 68.675781 9.46875 78.273438 L 9.46875 92.105469 C 9.46875 98.910156 11.875 105.324219 16.234375 110.15625 C 20.683594 115.089844 26.621094 117.800781 32.960938 117.800781 L 32.960938 117.453125 C 34.601562 120.222656 36.882812 122.949219 39.804688 125.605469 C 44.785156 130.144531 51.671875 134.550781 60.285156 138.699219 C 74.34375 145.480469 88.15625 149.304688 89.449219 149.652344 C 90.867188 150.097656 92.328125 150.324219 93.789062 150.324219 C 95.25 150.324219 96.699219 150.097656 98.128906 149.652344 C 99.410156 149.304688 113.234375 145.480469 127.296875 138.699219 C 135.894531 134.550781 142.785156 130.144531 147.773438 125.605469 C 150.695312 122.949219 152.976562 120.222656 154.621094 117.453125 L 154.621094 117.8125 C 160.957031 117.8125 166.894531 115.101562 171.34375 110.167969 C 175.707031 105.324219 178.109375 98.921875 178.109375 92.117188 L 178.109375 78.285156 C 178.066406 68.6875 170.882812 60.886719 162.058594 60.886719 Z M 15.761719 92.117188 L 15.761719 78.285156 C 15.761719 72.152344 20.125 67.152344 25.472656 67.152344 L 29.8125 67.152344 L 29.8125 106.667969 C 29.8125 108.226562 30.003906 109.773438 30.386719 111.320312 C 22.113281 109.921875 15.761719 101.835938 15.761719 92.117188 Z M 151.4375 106.679688 C 151.4375 111.367188 148.773438 116.164062 143.527344 120.964844 C 139.007812 125.089844 132.632812 129.148438 124.609375 133.027344 C 110.695312 139.753906 96.542969 143.585938 96.398438 143.621094 L 96.238281 143.664062 C 94.621094 144.191406 92.921875 144.191406 91.304688 143.664062 L 91.148438 143.621094 C 91 143.585938 76.851562 139.753906 62.9375 133.027344 C 54.898438 129.148438 48.539062 125.089844 44.019531 120.964844 C 38.769531 116.175781 36.105469 111.367188 36.105469 106.679688 L 36.105469 57.242188 C 36.105469 56.007812 36.769531 54.886719 37.703125 54.519531 L 86.652344 43.980469 L 86.808594 43.933594 C 91.363281 42.453125 96.183594 42.453125 100.734375 43.933594 L 100.894531 43.980469 L 149.84375 54.519531 C 150.773438 54.886719 151.4375 56.007812 151.4375 57.242188 Z M 171.769531 92.117188 C 171.769531 101.847656 165.410156 109.921875 157.148438 111.332031 C 157.53125 109.796875 157.722656 108.238281 157.722656 106.679688 L 157.722656 67.152344 L 162.058594 67.152344 C 167.421875 67.152344 171.769531 72.140625 171.769531 78.285156 Z M 171.769531 92.117188 "/></g><path style=" stroke:none;fill-rule:nonzero;fill:#000000;fill-opacity:1;" d="M 127.117188 77.039062 L 60.417969 77.039062 C 58.675781 77.039062 57.269531 78.441406 57.269531 80.179688 C 57.269531 81.917969 58.675781 83.316406 60.417969 83.316406 L 127.125 83.316406 C 128.867188 83.316406 130.273438 81.917969 130.273438 80.179688 C 130.261719 78.441406 128.859375 77.039062 127.117188 77.039062 Z M 127.117188 77.039062 "/><path style=" stroke:none;fill-rule:nonzero;fill:#000000;fill-opacity:1;" d="M 127.117188 100.886719 L 60.417969 100.886719 C 58.675781 100.886719 57.269531 102.285156 57.269531 104.023438 C 57.269531 105.761719 58.675781 107.164062 60.417969 107.164062 L 127.125 107.164062 C 128.867188 107.164062 130.273438 105.761719 130.273438 104.023438 C 130.273438 102.285156 128.859375 100.886719 127.117188 100.886719 Z M 127.117188 100.886719 "/></g></svg>