<svg xmlns="http://www.w3.org/2000/svg" xmlns:xlink="http://www.w3.org/1999/xlink" width="250" zoomAndPan="magnify" viewBox="0 0 187.92 196.08" height="250" preserveAspectRatio="xMidYMid meet" version="1.2"><defs><clipPath id="fb6a34328e"><path d="M 21.492188 21.09375 L 165.566406 21.09375 L 165.566406 165.167969 L 21.492188 165.167969 Z M 21.492188 21.09375 "/></clipPath></defs><g id="d739358d1d"><g clip-rule="nonzero" clip-path="url(#fb6a34328e)"><path style=" stroke:none;fill-rule:nonzero;fill:#000000;fill-opacity:1;" d="M 73.027344 21.09375 L 114.035156 21.09375 C 115.28125 21.09375 116.289062 22.101562 116.289062 23.34375 L 116.289062 70.375 L 163.320312 70.375 C 164.566406 70.375 165.574219 71.382812 165.574219 72.628906 L 165.574219 113.640625 C 165.574219 114.882812 164.566406 115.890625 163.320312 115.890625 L 116.289062 115.890625 L 116.289062 162.921875 C 116.289062 164.164062 115.28125 165.175781 114.035156 165.175781 L 73.027344 165.175781 C 71.78125 165.175781 70.777344 164.164062 70.777344 162.921875 L 70.777344 115.890625 L 23.742188 115.890625 C 22.5 115.890625 21.492188 114.882812 21.492188 113.640625 L 21.492188 72.628906 C 21.492188 71.382812 22.5 70.375 23.742188 70.375 L 70.777344 70.375 L 70.777344 23.34375 C 70.777344 22.101562 71.78125 21.09375 73.027344 21.09375 Z M 111.785156 25.59375 L 75.277344 25.59375 L 75.277344 72.628906 C 75.277344 73.871094 74.269531 74.878906 73.027344 74.878906 L 25.992188 74.878906 L 25.992188 111.386719 L 73.027344 111.386719 C 74.269531 111.386719 75.277344 112.394531 75.277344 113.640625 L 75.277344 160.671875 L 111.785156 160.671875 L 111.785156 113.640625 C 111.785156 112.394531 112.796875 111.386719 114.035156 111.386719 L 161.070312 111.386719 L 161.070312 74.878906 L 114.035156 74.878906 C 112.796875 74.878906 111.785156 73.871094 111.785156 72.628906 L 111.785156 25.59375 "/></g></g></svg>