<svg xmlns="http://www.w3.org/2000/svg" xmlns:xlink="http://www.w3.org/1999/xlink" width="250" zoomAndPan="magnify" viewBox="0 0 187.5 187.499992" height="250" preserveAspectRatio="xMidYMid meet" version="1.2"><defs><clipPath id="54eebf2633"><path d="M 22 99 L 165.453125 99 L 165.453125 165.660156 L 22 165.660156 Z M 22 99 "/></clipPath><clipPath id="85d90e030b"><path d="M 52 21.296875 L 136 21.296875 L 136 97 L 52 97 Z M 52 21.296875 "/></clipPath></defs><g id="dfe93e1edd"><g clip-rule="nonzero" clip-path="url(#54eebf2633)"><path style=" stroke:none;fill-rule:nonzero;fill:#000000;fill-opacity:1;" d="M 164.214844 109.65625 C 163.839844 109.09375 163.421875 108.566406 162.957031 108.074219 C 162.496094 107.582031 161.992188 107.128906 161.457031 106.71875 C 160.917969 106.308594 160.351562 105.945312 159.75 105.625 C 159.152344 105.308594 158.53125 105.042969 157.890625 104.828125 C 157.25 104.617188 156.59375 104.457031 155.921875 104.347656 C 155.253906 104.242188 154.582031 104.191406 153.902344 104.199219 C 153.226562 104.203125 152.554688 104.261719 151.886719 104.378906 C 151.21875 104.496094 150.566406 104.664062 149.925781 104.886719 L 147.066406 105.890625 C 147.050781 105.878906 147.035156 105.867188 147.023438 105.859375 L 142.347656 102.925781 C 140.742188 101.917969 138.996094 101.289062 137.113281 101.039062 C 135.230469 100.789062 133.382812 100.9375 131.566406 101.492188 L 122.773438 104.167969 C 122.6875 104.09375 122.601562 104.027344 122.503906 103.96875 L 117.410156 100.773438 C 116.136719 99.972656 114.753906 99.472656 113.261719 99.273438 C 111.769531 99.074219 110.300781 99.191406 108.863281 99.628906 L 75.75 109.511719 L 71.007812 106.796875 C 69.695312 106.042969 68.308594 105.457031 66.847656 105.042969 C 65.386719 104.632812 63.898438 104.402344 62.382812 104.359375 C 60.867188 104.3125 59.367188 104.453125 57.886719 104.78125 C 56.40625 105.105469 54.984375 105.609375 53.628906 106.285156 L 26.78125 119.636719 L 26.601562 118.839844 C 26.535156 118.539062 26.414062 118.265625 26.238281 118.015625 C 26.0625 117.765625 25.84375 117.558594 25.585938 117.398438 C 25.328125 117.234375 25.046875 117.125 24.746094 117.074219 C 24.445312 117.019531 24.144531 117.027344 23.847656 117.09375 C 23.546875 117.160156 23.273438 117.28125 23.023438 117.457031 C 22.769531 117.632812 22.5625 117.847656 22.398438 118.105469 C 22.234375 118.363281 22.128906 118.644531 22.074219 118.945312 C 22.019531 119.246094 22.027344 119.542969 22.09375 119.84375 L 22.917969 123.515625 L 30.675781 158.191406 L 30.679688 158.210938 L 31.894531 163.628906 C 31.960938 163.925781 32.082031 164.199219 32.257812 164.449219 C 32.433594 164.699219 32.652344 164.90625 32.910156 165.070312 C 33.167969 165.234375 33.449219 165.34375 33.75 165.394531 C 34.050781 165.449219 34.351562 165.441406 34.652344 165.375 C 34.949219 165.308594 35.222656 165.1875 35.476562 165.011719 C 35.726562 164.835938 35.933594 164.621094 36.097656 164.363281 C 36.261719 164.101562 36.371094 163.824219 36.421875 163.523438 C 36.476562 163.222656 36.46875 162.921875 36.402344 162.625 L 35.519531 158.6875 L 49.378906 148.839844 L 85.121094 162.527344 C 86.164062 162.925781 87.238281 163.195312 88.34375 163.335938 C 89.449219 163.480469 90.554688 163.488281 91.664062 163.367188 C 92.773438 163.242188 93.851562 162.992188 94.898438 162.613281 C 95.945312 162.230469 96.933594 161.734375 97.863281 161.117188 L 162.5 118.191406 C 162.839844 117.96875 163.152344 117.714844 163.4375 117.429688 C 163.726562 117.144531 163.980469 116.832031 164.207031 116.496094 C 164.433594 116.160156 164.621094 115.804688 164.777344 115.433594 C 164.933594 115.058594 165.050781 114.675781 165.132812 114.277344 C 165.210938 113.882812 165.25 113.484375 165.25 113.078125 C 165.25 112.675781 165.210938 112.273438 165.132812 111.878906 C 165.054688 111.480469 164.9375 111.09375 164.785156 110.722656 C 164.628906 110.347656 164.441406 109.992188 164.214844 109.65625 Z M 132.914062 105.902344 C 134.089844 105.542969 135.285156 105.445312 136.503906 105.605469 C 137.722656 105.769531 138.847656 106.175781 139.890625 106.828125 L 141.496094 107.835938 L 98.847656 122.75 L 91.453125 118.515625 Z M 110.199219 104.042969 C 111 103.796875 111.8125 103.730469 112.644531 103.839844 C 113.472656 103.953125 114.246094 104.230469 114.953125 104.675781 L 116.960938 105.933594 L 85.960938 115.367188 L 81.269531 112.675781 Z M 160.601562 113.375 C 160.519531 113.792969 160.296875 114.121094 159.941406 114.355469 L 95.304688 157.28125 C 94.679688 157.695312 94.019531 158.027344 93.320312 158.28125 C 92.617188 158.535156 91.894531 158.703125 91.15625 158.785156 C 90.414062 158.867188 89.671875 158.859375 88.933594 158.765625 C 88.191406 158.671875 87.472656 158.492188 86.777344 158.222656 L 49.875 144.09375 C 49.511719 143.957031 49.140625 143.910156 48.757812 143.960938 C 48.371094 144.007812 48.023438 144.144531 47.707031 144.371094 L 34.429688 153.804688 L 27.820312 124.273438 L 55.6875 110.410156 C 56.707031 109.902344 57.769531 109.527344 58.878906 109.285156 C 59.988281 109.039062 61.109375 108.933594 62.246094 108.96875 C 63.382812 109 64.496094 109.171875 65.589844 109.480469 C 66.683594 109.789062 67.722656 110.226562 68.707031 110.792969 L 97.460938 127.273438 C 97.796875 127.464844 98.113281 127.6875 98.40625 127.941406 C 98.699219 128.195312 98.964844 128.472656 99.203125 128.777344 C 99.441406 129.082031 99.648438 129.40625 99.824219 129.75 C 100 130.097656 100.140625 130.453125 100.246094 130.824219 C 100.351562 131.199219 100.421875 131.578125 100.453125 131.960938 C 100.484375 132.347656 100.480469 132.730469 100.4375 133.117188 C 100.394531 133.5 100.316406 133.875 100.199219 134.246094 C 100.085938 134.613281 99.933594 134.96875 99.75 135.308594 L 99.65625 135.484375 C 99.488281 135.804688 99.289062 136.101562 99.066406 136.386719 C 98.839844 136.667969 98.589844 136.925781 98.320312 137.160156 C 98.046875 137.398438 97.753906 137.605469 97.441406 137.785156 C 97.128906 137.964844 96.800781 138.117188 96.460938 138.238281 C 96.121094 138.355469 95.773438 138.445312 95.417969 138.5 C 95.058594 138.554688 94.699219 138.574219 94.339844 138.5625 C 93.980469 138.550781 93.621094 138.503906 93.269531 138.425781 C 92.917969 138.347656 92.578125 138.238281 92.246094 138.09375 L 70.234375 128.761719 C 69.953125 128.640625 69.660156 128.578125 69.351562 128.574219 C 69.046875 128.570312 68.75 128.625 68.464844 128.742188 C 68.179688 128.855469 67.929688 129.019531 67.710938 129.234375 C 67.492188 129.449219 67.320312 129.695312 67.199219 129.976562 C 67.082031 130.257812 67.019531 130.550781 67.015625 130.859375 C 67.015625 131.164062 67.070312 131.460938 67.1875 131.742188 C 67.300781 132.027344 67.464844 132.277344 67.679688 132.496094 C 67.894531 132.714844 68.144531 132.882812 68.429688 133 L 90.4375 142.335938 C 91.03125 142.59375 91.644531 142.792969 92.277344 142.933594 C 92.910156 143.074219 93.546875 143.15625 94.195312 143.175781 C 94.84375 143.199219 95.484375 143.160156 96.125 143.0625 C 96.765625 142.964844 97.390625 142.808594 98.003906 142.59375 C 98.613281 142.378906 99.199219 142.109375 99.757812 141.785156 C 100.316406 141.460938 100.84375 141.085938 101.332031 140.664062 C 101.824219 140.242188 102.269531 139.777344 102.671875 139.269531 C 103.074219 138.765625 103.429688 138.226562 103.730469 137.65625 L 103.824219 137.480469 C 104.300781 136.597656 104.648438 135.664062 104.859375 134.683594 C 105.070312 133.703125 105.140625 132.710938 105.070312 131.710938 C 105 130.710938 104.792969 129.738281 104.445312 128.796875 C 104.097656 127.855469 103.625 126.980469 103.027344 126.175781 L 151.457031 109.238281 C 152.257812 108.957031 153.085938 108.8125 153.9375 108.808594 C 154.789062 108.800781 155.617188 108.933594 156.425781 109.203125 C 157.230469 109.472656 157.972656 109.863281 158.648438 110.378906 C 159.324219 110.894531 159.898438 111.507812 160.371094 112.214844 C 160.609375 112.570312 160.6875 112.953125 160.601562 113.375 Z M 160.601562 113.375 "/></g><g clip-rule="nonzero" clip-path="url(#85d90e030b)"><path style=" stroke:none;fill-rule:nonzero;fill:#000000;fill-opacity:1;" d="M 52.605469 54.082031 L 53.839844 58.417969 C 53.855469 58.46875 53.871094 58.519531 53.890625 58.566406 C 58.535156 71.414062 70.792969 83.296875 92.464844 95.964844 C 92.828125 96.171875 93.214844 96.277344 93.632812 96.28125 C 94.046875 96.28125 94.4375 96.175781 94.796875 95.964844 C 106.078125 89.414062 114.691406 83.109375 121.132812 76.699219 C 128.613281 69.253906 133.050781 61.804688 134.703125 53.921875 C 134.710938 53.890625 134.714844 53.855469 134.722656 53.824219 C 135.039062 51.902344 135.1875 49.96875 135.164062 48.023438 C 135.164062 47.976562 135.164062 47.933594 135.160156 47.886719 C 134.714844 41.628906 133.527344 37.136719 131.53125 34.15625 C 127.617188 27.246094 120.917969 22.714844 113.585938 22.027344 C 106.464844 21.363281 99.460938 24.28125 93.632812 30.289062 C 89.894531 26.441406 85.628906 23.816406 81.164062 22.648438 C 78.777344 22.011719 76.347656 21.800781 73.882812 22.011719 C 71.421875 22.21875 69.066406 22.839844 66.816406 23.871094 C 61.890625 26.109375 57.75 30.183594 55.15625 35.347656 C 52.402344 40.835938 51.5 47.222656 52.546875 53.8125 C 52.558594 53.902344 52.578125 53.992188 52.605469 54.082031 Z M 59.285156 37.414062 C 61.410156 33.1875 64.761719 29.867188 68.730469 28.066406 C 76.503906 24.539062 85.148438 27.210938 91.863281 35.210938 C 92.082031 35.472656 92.347656 35.675781 92.65625 35.820312 C 92.96875 35.964844 93.292969 36.035156 93.632812 36.035156 C 93.976562 36.035156 94.300781 35.964844 94.613281 35.820312 C 94.921875 35.675781 95.1875 35.472656 95.40625 35.210938 C 100.550781 29.082031 106.851562 26.03125 113.15625 26.617188 C 119.003906 27.164062 124.382812 30.855469 127.546875 36.496094 C 127.578125 36.554688 127.617188 36.613281 127.652344 36.667969 C 129.207031 38.945312 130.15625 42.699219 130.546875 48.144531 C 130.5625 49.785156 130.433594 51.414062 130.171875 53.03125 C 128.699219 59.984375 124.675781 66.660156 117.871094 73.433594 C 111.933594 79.34375 104 85.195312 93.636719 91.300781 C 73.980469 79.644531 62.402344 68.441406 58.261719 57.078125 L 57.085938 52.957031 C 56.226562 47.371094 56.984375 42 59.285156 37.414062 Z M 59.285156 37.414062 "/></g></g></svg>