<svg xmlns="http://www.w3.org/2000/svg" xmlns:xlink="http://www.w3.org/1999/xlink" width="250" zoomAndPan="magnify" viewBox="0 0 187.92 196.08" height="250" preserveAspectRatio="xMidYMid meet" version="1.2"><defs><clipPath id="92c0b28f5f"><path d="M 9 28 L 179.863281 28 L 179.863281 161.222656 L 9 161.222656 Z M 9 28 "/></clipPath></defs><g id="1887f3b94f"><g clip-rule="nonzero" clip-path="url(#92c0b28f5f)"><path style=" stroke:none;fill-rule:nonzero;fill:#000000;fill-opacity:1;" d="M 88.011719 161.054688 C 88.320312 161.167969 88.648438 161.222656 88.972656 161.222656 C 89.292969 161.222656 89.617188 161.167969 89.929688 161.054688 C 123.085938 149.113281 153.328125 120.121094 162.332031 100.121094 C 169.652344 83.953125 170.132812 67.113281 163.773438 53.480469 C 167.746094 50.335938 171.867188 47.273438 176.1875 44.394531 C 178.265625 43.042969 179.507812 40.765625 179.507812 38.300781 C 179.507812 36.371094 178.742188 34.554688 177.371094 33.199219 C 175.511719 31.320312 172.796875 30.582031 170.304688 31.28125 C 164.382812 32.933594 158.378906 35.597656 152.464844 38.917969 C 142.296875 30.335938 128.808594 26.503906 116.765625 28.925781 C 105.753906 31.136719 95.722656 38.414062 89.929688 48.378906 C 89.597656 48.945312 89.28125 49.515625 88.976562 50.097656 C 88.671875 49.519531 88.355469 48.949219 88.027344 48.386719 C 82.226562 38.414062 72.191406 31.136719 61.1875 28.921875 C 43.753906 25.410156 24.03125 35 15.304688 51.21875 C 7.785156 65.210938 7.898438 83.03125 15.609375 100.109375 C 24.621094 120.121094 54.859375 149.109375 88.015625 161.050781 Z M 171.820312 36.734375 C 172.339844 36.582031 172.941406 36.769531 173.371094 37.207031 C 173.6875 37.519531 173.847656 37.886719 173.847656 38.300781 C 173.847656 38.839844 173.570312 39.347656 173.078125 39.667969 C 132.53125 66.667969 106.972656 107.046875 97.863281 123.152344 C 97.25 124.230469 96.214844 124.398438 95.800781 124.425781 C 95.402344 124.425781 94.339844 124.390625 93.621094 123.398438 C 80.148438 104.8125 67.433594 95.789062 61.054688 92.066406 C 60.820312 91.929688 60.734375 91.726562 60.703125 91.582031 C 60.675781 91.464844 60.660156 91.234375 60.828125 91.003906 L 70.582031 77.527344 C 70.753906 77.292969 71.015625 77.171875 71.285156 77.171875 C 71.46875 77.171875 71.660156 77.230469 71.816406 77.34375 C 76.183594 80.527344 86.777344 88.792969 90.839844 96.78125 C 91.277344 97.636719 92.117188 98.214844 93.074219 98.3125 C 94.007812 98.390625 94.972656 98.019531 95.570312 97.265625 C 95.976562 96.757812 136.480469 46.59375 171.820312 36.730469 Z M 20.285156 53.902344 C 27.878906 39.796875 44.984375 31.449219 60.070312 34.476562 C 69.515625 36.375 78.136719 42.640625 83.140625 51.25 C 84.441406 53.460938 85.5 55.8125 86.277344 58.238281 C 86.65625 59.410156 87.742188 60.203125 88.972656 60.203125 C 90.199219 60.203125 91.285156 59.410156 91.660156 58.242188 C 92.445312 55.816406 93.503906 53.460938 94.808594 51.238281 C 99.808594 42.640625 108.429688 36.375 117.871094 34.476562 C 127.664062 32.511719 138.597656 35.402344 147.253906 42.019531 C 122.992188 57.242188 101.085938 81.898438 93.722656 90.621094 C 88.632812 83.214844 80.179688 76.4375 75.15625 72.773438 C 72.246094 70.644531 68.148438 71.273438 66.011719 74.1875 L 56.25 87.679688 C 55.191406 89.132812 54.796875 90.980469 55.164062 92.742188 C 55.53125 94.503906 56.636719 96.039062 58.199219 96.953125 C 64.195312 100.453125 76.175781 108.976562 89.035156 126.71875 C 90.578125 128.851562 93.023438 130.089844 95.648438 130.089844 C 95.800781 130.089844 95.953125 130.089844 96.109375 130.074219 C 98.910156 129.921875 101.40625 128.375 102.78125 125.941406 C 110.332031 112.589844 129.476562 82.214844 159.175781 57.238281 C 164.195312 69.132812 163.5625 83.675781 157.171875 97.789062 C 149.804688 114.160156 122.101562 143.089844 88.972656 155.382812 C 55.84375 143.089844 28.136719 114.160156 20.765625 97.785156 C 13.78125 82.324219 13.609375 66.328125 20.285156 53.902344 Z M 20.285156 53.902344 "/></g></g></svg>